<?xml version="1.0" encoding="UTF-8"?>
<svg version="1.1" xmlns="http://www.w3.org/2000/svg" width="501" height="498">
<path d="M0 0 C3.45156403 1.69589015 6.75360916 3.60511961 10.0625 5.5625 C10.99626465 6.10535645 11.9300293 6.64821289 12.89208984 7.20751953 C19.04537704 10.79986416 25.12297025 14.50210339 31.16796875 18.2734375 C34.7407472 20.45160036 38.39742558 22.44078716 42.08203125 24.421875 C45.61488796 26.33254985 49.1252901 28.27938454 52.625 30.25 C53.24173584 30.59160156 53.85847168 30.93320312 54.49389648 31.28515625 C58.88497402 33.76994805 58.88497402 33.76994805 60 36 C60.08991092 37.54227856 60.11756961 39.08840895 60.11352539 40.63330078 C60.11344986 41.59414581 60.11337433 42.55499084 60.11329651 43.54495239 C60.10813522 44.58457123 60.10297394 45.62419006 60.09765625 46.6953125 C60.09553383 48.28918289 60.09553383 48.28918289 60.09336853 49.91525269 C60.08775834 53.31853009 60.07520409 56.72174238 60.0625 60.125 C60.05748631 62.42838447 60.05292318 64.73176997 60.04882812 67.03515625 C60.0377856 72.69012649 60.02103752 78.34505859 60 84 C62.39258504 83.05110903 64.78438591 82.10031836 67.17578125 81.1484375 C67.84774536 80.88216553 68.51970947 80.61589355 69.21203613 80.34155273 C72.91969928 78.86391829 76.573988 77.32391902 80.1875 75.625 C85.51394528 73.15920234 90.93276885 70.94483334 96.375 68.75 C97.24406982 68.39631348 98.11313965 68.04262695 99.00854492 67.67822266 C99.83845947 67.34612793 100.66837402 67.0140332 101.5234375 66.671875 C102.26513184 66.3737793 103.00682617 66.07568359 103.77099609 65.76855469 C108.04098892 64.29627239 110.10616324 63.60458909 114.35546875 65.484375 C115.64171399 66.22432086 116.9185873 66.98070991 118.1875 67.75 C118.87875977 68.15323486 119.57001953 68.55646973 120.28222656 68.97192383 C126.42421624 72.57948398 132.47189516 76.34790179 138.52758789 80.09790039 C144.51941846 83.78089203 150.61738244 87.03396007 157 90 C157 90.66 157 91.32 157 92 C157.57419678 92.11770752 158.14839355 92.23541504 158.73999023 92.35668945 C161.16498193 93.04696202 162.99295314 94.00988347 165.16015625 95.29296875 C165.9480957 95.75525879 166.73603516 96.21754883 167.54785156 96.69384766 C168.79260254 97.43320557 168.79260254 97.43320557 170.0625 98.1875 C171.78713113 99.20029109 173.51238747 100.21201834 175.23828125 101.22265625 C176.06537598 101.70750488 176.8924707 102.19235352 177.74462891 102.69189453 C180.38529862 104.22347153 183.05732922 105.68700789 185.75 107.125 C186.51042854 107.55521045 187.27085709 107.98542089 188.05432892 108.42866802 C190.27538148 109.61346117 192.42240601 110.616229 194.72905731 111.59731007 C204.66786303 116.17234935 204.66786303 116.17234935 206.86956215 120.84576964 C208.27440772 126.32022748 207.9773812 131.9459765 207.84570312 137.55151367 C207.85621695 139.43475336 207.87320438 141.31796631 207.89614868 143.20109558 C207.93878249 148.29762581 207.88784998 153.38927888 207.81729317 158.48534179 C207.756837 163.82364659 207.77461092 169.1617574 207.78161621 174.50032043 C207.78145567 183.46123467 207.72228723 192.42024746 207.62597656 201.38061523 C207.51519889 211.73722753 207.48896371 222.09135333 207.5098691 232.44848078 C207.52878722 242.42007437 207.496524 252.39081626 207.43797302 262.36223793 C207.41346236 266.60264544 207.40531995 270.84261742 207.41004944 275.08308983 C207.41268752 280.07536043 207.37001358 285.06526984 207.29236984 290.05691719 C207.27089549 291.88776575 207.26462913 293.71886565 207.27472305 295.54981232 C207.33649845 309.39681827 207.33649845 309.39681827 204.00254822 313.39602089 C201.7039355 314.95895554 199.59344163 316.0236422 197 317 C196.15953125 317.48726563 195.3190625 317.97453125 194.453125 318.4765625 C193.72609375 318.85554688 192.9990625 319.23453125 192.25 319.625 C186.58857296 322.65190159 181.01084146 325.81481485 175.4375 329 C174.56319336 329.49838379 173.68888672 329.99676758 172.78808594 330.51025391 C166.81101918 333.92908231 160.8912275 337.4354005 155 341 C165.50263993 345.10359558 176.01909551 349.16741089 186.56518555 353.15820312 C192.40388233 355.3729009 198.20923081 357.662901 204 360 C204 360.99 204 361.98 204 363 C201.7364189 364.57630996 199.52968185 365.91673266 197.125 367.25 C196.00931641 367.88711914 196.00931641 367.88711914 194.87109375 368.53710938 C193.19158871 369.49586064 191.50943648 370.44998394 189.82519531 371.40039062 C185.65857597 373.75950659 181.51494357 376.15801207 177.36914062 378.5534668 C175.10571314 379.86117022 172.84137558 381.16729959 170.57617188 382.47192383 C164.573518 385.92919814 158.58508886 389.40741566 152.625 392.9375 C143.85639797 398.12739893 134.99944028 403.16333718 126.14501953 408.20483398 C119.66365279 411.89738535 113.20125353 415.61920545 106.76245117 419.38549805 C102.78734078 421.70873313 98.79960698 424.0099392 94.8125 426.3125 C87.8099889 430.35961615 80.82714753 434.4384507 73.87036133 438.5637207 C70.523196 440.54237587 67.15833816 442.47685835 63.75390625 444.35546875 C58.137568 447.45936117 52.60192474 450.69890618 47.0625 453.9375 C46.04220703 454.53240234 45.02191406 455.12730469 43.97070312 455.74023438 C39.15444244 458.5525372 34.35079445 461.38246811 29.57421875 464.26171875 C26.33684961 466.21021616 23.08508915 468.09702201 19.75 469.875 C15.25983641 472.30020297 10.80863354 474.78593933 6.375 477.3125 C5.75850586 477.66231934 5.14201172 478.01213867 4.50683594 478.37255859 C1.57941626 479.94562685 1.57941626 479.94562685 -1 482 C-6.09400845 482.52416609 -8.6685015 481.36501134 -12.875 478.5625 C-14.01237496 477.8238149 -15.15179624 477.08827349 -16.29296875 476.35546875 C-17.19088135 475.77611572 -17.19088135 475.77611572 -18.10693359 475.18505859 C-21.39738073 473.12524039 -24.79287344 471.25632556 -28.1875 469.375 C-32.49671784 466.97553766 -36.78561945 464.56404329 -41 462 C-45.05630377 459.53796487 -49.17281232 457.19312345 -53.3125 454.875 C-66.79893247 447.32136721 -80.22774494 439.66986919 -93.53125 431.7980957 C-100.15308735 427.88867684 -106.83124746 424.07956839 -113.51953125 420.28515625 C-118.62597969 417.38195737 -123.68289011 414.40861439 -128.71264648 411.37451172 C-132.65557031 409.00513813 -136.64471473 406.7171264 -140.62890625 404.41796875 C-143 403 -143 403 -144 402 C-144.12363297 400.03712234 -144.1779544 398.06984842 -144.20532227 396.10327148 C-144.2352401 394.21142372 -144.2352401 394.21142372 -144.26576233 392.28135681 C-144.28274795 390.89460373 -144.29962671 389.50784934 -144.31640625 388.12109375 C-144.33696926 386.7100411 -144.35796555 385.29899471 -144.37937927 383.88795471 C-144.43466755 380.1676641 -144.48404686 376.44731727 -144.53222656 372.72692871 C-144.58239242 368.93313575 -144.63810408 365.13942477 -144.69335938 361.34570312 C-144.80102351 353.89720477 -144.90244997 346.44863841 -145 339 C-146.98195646 341.12245714 -148.96064257 343.24780268 -150.9375 345.375 C-151.50146484 345.97828125 -152.06542969 346.5815625 -152.64648438 347.203125 C-153.18466797 347.78320312 -153.72285156 348.36328125 -154.27734375 348.9609375 C-154.77484131 349.49509277 -155.27233887 350.02924805 -155.78491211 350.57958984 C-157.10293508 352.0045475 -157.10293508 352.0045475 -158 354 C-158.66 354 -159.32 354 -160 354 C-160 354.66 -160 355.32 -160 356 C-160.66 356 -161.32 356 -162 356 C-162 356.66 -162 357.32 -162 358 C-162.66 358 -163.32 358 -164 358 C-164.23203125 358.56074219 -164.4640625 359.12148438 -164.703125 359.69921875 C-166.33077095 362.58681955 -168.36259832 364.5155302 -170.75 366.8125 C-174.7422092 370.71792204 -178.44473562 374.69625891 -182 379 C-187.12613883 378.46623702 -190.88390038 375.9375808 -195.1875 373.3125 C-195.89197266 372.89033203 -196.59644531 372.46816406 -197.32226562 372.03320312 C-198.74154104 371.18163787 -200.15122705 370.31384502 -201.54988098 369.42881775 C-203.96502083 367.94500627 -203.96502083 367.94500627 -206.5846405 366.93836975 C-209.57545454 365.58168076 -211.66786697 364.32789926 -214 362 C-215.49448132 357.13249664 -215.3620707 352.30226625 -215.2578125 347.2578125 C-215.25947194 345.80580942 -215.26439853 344.35380676 -215.27243042 342.90182495 C-215.27813681 339.86291989 -215.24887323 336.82697102 -215.19384766 333.78857422 C-215.12578113 329.91142362 -215.1376731 326.03957428 -215.17517281 322.16217232 C-215.19641538 319.16413948 -215.1783476 316.1673196 -215.14840317 313.16939926 C-215.13810379 311.74142954 -215.13892497 310.31333134 -215.15149307 308.88537979 C-215.22015668 296.39378206 -215.22015668 296.39378206 -210.11035156 291.22021484 C-208.76900734 290.11106428 -207.40092193 289.03287803 -206 288 C-204.56527344 286.74703125 -204.56527344 286.74703125 -203.1015625 285.46875 C-202.28429687 284.8190625 -201.46703125 284.169375 -200.625 283.5 C-199.79226562 282.8296875 -198.95953125 282.159375 -198.1015625 281.46875 C-196 280 -196 280 -194 280 C-194 279.34 -194 278.68 -194 278 C-192.06640625 276.34375 -192.06640625 276.34375 -189.5625 274.5 C-186.25143208 272.20089737 -186.25143208 272.20089737 -184 269 C-184.72058594 268.72542969 -185.44117188 268.45085937 -186.18359375 268.16796875 C-195.29655396 264.38880772 -207.02279032 258.97720968 -214 252 C-214.22356517 248.96930502 -214.32197729 246.02711215 -214.3347168 242.9934082 C-214.34636871 242.0578006 -214.35802063 241.12219299 -214.37002563 240.15823364 C-214.40622222 237.03910103 -214.42797867 233.92004902 -214.44921875 230.80078125 C-214.47049914 228.61345258 -214.49246766 226.4261305 -214.51509094 224.23881531 C-214.56064361 219.62595689 -214.59935423 215.01310637 -214.63305664 210.40014648 C-214.67586758 204.58185994 -214.73281886 198.76382515 -214.79443169 192.94571114 C-215.21558477 152.58169571 -215.21558477 152.58169571 -214.75690651 134.41301537 C-214.70865664 132.48298544 -214.67183967 130.55268018 -214.63542175 128.62239075 C-214.59822525 127.50458725 -214.56102875 126.38678375 -214.52270508 125.23510742 C-214.49453201 124.28504318 -214.46635895 123.33497894 -214.43733215 122.35612488 C-213.92215337 119.58060165 -213.18668079 118.72391175 -211 117 C-205.21801688 113.14894034 -199.03901441 109.90407853 -192.93359375 106.6015625 C-182.2167246 100.75080837 -171.71253753 94.5096509 -161.17041016 88.35229492 C-154.84953507 84.6606003 -148.52354106 80.97810491 -142.1875 77.3125 C-141.43146484 76.87494385 -140.67542969 76.4373877 -139.89648438 75.98657227 C-135.89397953 73.67107005 -131.88923286 71.35950178 -127.8828125 69.05078125 C-127.03436768 68.5611792 -126.18592285 68.07157715 -125.31176758 67.56713867 C-123.7055355 66.64030338 -122.09865526 65.71458995 -120.4909668 64.7902832 C-116.16101606 62.29053255 -111.92426134 59.70289858 -107.75756836 56.93798828 C-106 56 -106 56 -102.75 55.75 C-97.0116717 57.6627761 -92.12372044 60.82883249 -87 64 C-85.58762426 64.81993625 -84.17184649 65.63409894 -82.75 66.4375 C-81.38875 67.2109375 -81.38875 67.2109375 -80 68 C-80.309375 66.824375 -80.61875 65.64875 -80.9375 64.4375 C-81.88739645 60.05121343 -82.50424657 55.65179973 -82.9375 51.1875 C-83.07027344 49.92292969 -83.20304688 48.65835938 -83.33984375 47.35546875 C-83 44 -83 44 -80.8515625 41.73828125 C-78.08388413 40.05113484 -75.32363963 38.47573584 -72.4375 37 C-66.45265944 33.84757545 -60.65993205 30.44221631 -54.875 26.9375 C-49.0163535 23.393607 -43.15782922 19.91521525 -37.11328125 16.6953125 C-30.64555739 13.173365 -24.28000342 9.46626318 -17.890625 5.8046875 C-17.05080078 5.32870117 -16.21097656 4.85271484 -15.34570312 4.36230469 C-13.88125122 3.51180077 -12.43329747 2.6313926 -11.01367188 1.70800781 C-6.86315037 -0.94586571 -4.68749232 -1.61222196 0 0 Z " fill="#363C66" transform="translate(254,9)"/>
<path d="M0 0 C2.3515625 1.8984375 2.3515625 1.8984375 4.625 4.375 C7.04659411 6.97842029 9.02940759 9.01960506 12 11 C12 11.66 12 12.32 12 13 C12.84498047 13.36738281 12.84498047 13.36738281 13.70703125 13.7421875 C16.41956487 15.23015313 18.41557863 17.02502759 20.6875 19.125 C24.85284232 22.95612466 29.08447415 26.68999083 33.3828125 30.37109375 C35 32 35 32 35 34 C35.5671875 34.24878906 36.134375 34.49757812 36.71875 34.75390625 C39.35783826 36.19546302 41.28827664 37.8990283 43.5 39.9375 C44.36625 40.73027344 45.2325 41.52304688 46.125 42.33984375 C47.07375 43.21769531 48.0225 44.09554687 49 45 C50.62846379 46.50583252 52.2575995 48.01090907 53.88867188 49.51391602 C54.94958346 50.49236583 56.00824223 51.47326488 57.06445312 52.45678711 C59.81718308 55.02625829 59.81718308 55.02625829 63 57 C63 57.66 63 58.32 63 59 C63.66 59 64.32 59 65 59 C65 59.66 65 60.32 65 61 C65.54398437 61.22558594 66.08796875 61.45117188 66.6484375 61.68359375 C69.73640119 63.41223787 72.04454974 65.64550144 74.625 68.0625 C78.04209753 71.41533647 78.04209753 71.41533647 82 74 C82 74.66 82 75.32 82 76 C83.32 76.66 84.64 77.32 86 78 C86 78.99 86 79.98 86 81 C84.92105469 81.59425781 83.84210938 82.18851562 82.73046875 82.80078125 C72.30318557 88.55944791 61.95787609 94.44529508 51.66748047 100.44482422 C48.71820114 102.1642924 45.76730109 103.88096215 42.81640625 105.59765625 C40.69000395 106.8357654 38.56370066 108.0740446 36.4375 109.3125 C34.95709229 110.17439941 34.95709229 110.17439941 33.44677734 111.05371094 C32.01712646 111.88757324 32.01712646 111.88757324 30.55859375 112.73828125 C29.17389893 113.54579834 29.17389893 113.54579834 27.76123047 114.36962891 C24.13950758 116.50807855 20.55636447 118.70808218 16.98071289 120.92260742 C15 122 15 122 13 122 C13 166.88 13 211.76 13 258 C7.63207554 254.42138369 2.54953471 250.99629156 -2.5 247.0625 C-3.05695557 246.62993896 -3.61391113 246.19737793 -4.18774414 245.75170898 C-5.79378321 244.50364946 -7.39697302 243.25192595 -9 242 C-9.77214844 241.401875 -10.54429687 240.80375 -11.33984375 240.1875 C-13.56447889 238.46413274 -15.78292854 236.73308796 -18 235 C-18.51675293 234.59668457 -19.03350586 234.19336914 -19.56591797 233.77783203 C-25.68363988 229.00059811 -31.77682582 224.20790378 -37.75 219.25 C-42.06013995 215.68276678 -46.52621541 212.4843093 -51.19921875 209.41015625 C-51.79347656 208.94480469 -52.38773438 208.47945312 -53 208 C-53 207.34 -53 206.68 -53 206 C-53.54398438 205.75507813 -54.08796875 205.51015625 -54.6484375 205.2578125 C-57.53445379 203.71412937 -60.01546386 201.85108673 -62.625 199.875 C-63.14916504 199.47901611 -63.67333008 199.08303223 -64.21337891 198.67504883 C-68.47487932 195.43994245 -72.6420187 192.09345096 -76.796875 188.72265625 C-78.69159462 187.24114676 -80.595164 185.91024663 -82.625 184.625 C-83.40875 184.08875 -84.1925 183.5525 -85 183 C-85 182.34 -85 181.68 -85 181 C-87.73539572 180.01607068 -87.73539572 180.01607068 -91 180 C-93.10597864 181.79860314 -94.57526184 183.30014126 -96.25 185.4375 C-97.79957185 187.33065252 -99.37275335 189.17081087 -101 191 C-101.66 191 -102.32 191 -103 191 C-103.226875 191.53625 -103.45375 192.0725 -103.6875 192.625 C-106.56442709 197.83086807 -110.83050011 201.83050011 -115 206 C-115.825 206.99 -116.65 207.98 -117.5 209 C-120 212 -120 212 -122.3125 214.28515625 C-125.21241944 217.21458069 -127.85999767 220.27615267 -130.5 223.4375 C-130.96019531 223.98470703 -131.42039062 224.53191406 -131.89453125 225.09570312 C-132.35214844 225.64033203 -132.80976563 226.18496094 -133.28125 226.74609375 C-133.73113281 227.28089355 -134.18101562 227.81569336 -134.64453125 228.36669922 C-135.57103914 229.48311453 -136.48460542 230.61036394 -137.38671875 231.74658203 C-138.54947978 233.19875462 -139.77035138 234.60401193 -141 236 C-141.66 236 -142.32 236 -143 236 C-143 236.66 -143 237.32 -143 238 C-143.66 238 -144.32 238 -145 238 C-145 238.66 -145 239.32 -145 240 C-145.66 240 -146.32 240 -147 240 C-147.23203125 240.56074219 -147.4640625 241.12148438 -147.703125 241.69921875 C-149.33077095 244.58681955 -151.36259832 246.5155302 -153.75 248.8125 C-157.7422092 252.71792204 -161.44473562 256.69625891 -165 261 C-170.12613883 260.46623702 -173.88390038 257.9375808 -178.1875 255.3125 C-178.89197266 254.89033203 -179.59644531 254.46816406 -180.32226562 254.03320312 C-181.74154104 253.18163787 -183.15122705 252.31384502 -184.54988098 251.42881775 C-186.96502083 249.94500627 -186.96502083 249.94500627 -189.5846405 248.93836975 C-192.57545454 247.58168076 -194.66786697 246.32789926 -197 244 C-198.49448132 239.13249664 -198.3620707 234.30226625 -198.2578125 229.2578125 C-198.25947194 227.80580942 -198.26439853 226.35380676 -198.27243042 224.90182495 C-198.27813681 221.86291989 -198.24887323 218.82697102 -198.19384766 215.78857422 C-198.12578113 211.91142362 -198.1376731 208.03957428 -198.17517281 204.16217232 C-198.19641538 201.16413948 -198.1783476 198.1673196 -198.14840317 195.16939926 C-198.13810379 193.74142954 -198.13892497 192.31333134 -198.15149307 190.88537979 C-198.22015668 178.39378206 -198.22015668 178.39378206 -193.11035156 173.22021484 C-191.76900734 172.11106428 -190.40092193 171.03287803 -189 170 C-188.04351562 169.1646875 -187.08703125 168.329375 -186.1015625 167.46875 C-184.87566406 166.49421875 -184.87566406 166.49421875 -183.625 165.5 C-182.37589844 164.49453125 -182.37589844 164.49453125 -181.1015625 163.46875 C-179 162 -179 162 -177 162 C-177 161.34 -177 160.68 -177 160 C-175.1015625 158.2734375 -175.1015625 158.2734375 -172.625 156.375 C-171.81289062 155.74335938 -171.00078125 155.11171875 -170.1640625 154.4609375 C-168 153 -168 153 -166 153 C-166 152.34 -166 151.68 -166 151 C-164.33613626 149.99534323 -162.66861357 148.99674797 -161 148 C-157.87675025 145.48212199 -154.90559164 142.78451072 -151.90820312 140.11914062 C-147.20564332 136 -147.20564332 136 -145 136 C-145 135.34 -145 134.68 -145 134 C-144.34 134 -143.68 134 -143 134 C-143 133.34 -143 132.68 -143 132 C-141.6117572 131.05193174 -140.2171952 130.11185162 -138.79296875 129.21875 C-136.16320669 127.43119932 -133.86436031 125.30901253 -131.515625 123.171875 C-130 122 -130 122 -128 122 C-128 121.34 -128 120.68 -128 120 C-126.30725716 118.43567213 -124.54430148 116.94671428 -122.75 115.5 C-121.77546875 114.7059375 -120.8009375 113.911875 -119.796875 113.09375 C-117.55105238 111.41251966 -115.5534197 110.11864101 -113 109 C-113 108.34 -113 107.68 -113 107 C-111.13671875 105.30859375 -111.13671875 105.30859375 -108.6875 103.4375 C-107.48673828 102.50744141 -107.48673828 102.50744141 -106.26171875 101.55859375 C-104 100 -104 100 -101 99 C-101 98.34 -101 97.68 -101 97 C-99.3594214 95.80977631 -97.71444737 94.62319969 -96.01953125 93.51171875 C-93.42804798 91.5718657 -91.28301655 89.293285 -89 87 C-87.18684216 85.45516868 -85.35317353 83.9340938 -83.5 82.4375 C-82.5821875 81.69371094 -81.664375 80.94992188 -80.71875 80.18359375 C-78 78 -78 78 -75.35546875 76.484375 C-71.46663097 72.38271525 -70.95234943 67.23068836 -69.8125 61.8125 C-69.56564453 60.71357422 -69.31878906 59.61464844 -69.06445312 58.48242188 C-68.35845763 55.32521003 -67.67685727 52.16356643 -67 49 C-65.83941269 43.72291536 -64.65339682 38.45214227 -63.4375 33.1875 C-63.18871094 32.10855469 -62.93992188 31.02960938 -62.68359375 29.91796875 C-62.45800781 28.95503906 -62.23242188 27.99210937 -62 27 C-61.93683594 26.26265625 -61.87367188 25.5253125 -61.80859375 24.765625 C-61 23 -61 23 -58.2265625 21.69140625 C-57.03804687 21.31886719 -55.84953125 20.94632813 -54.625 20.5625 C-49.19744627 18.83555109 -44.15288237 16.73900497 -38.984375 14.34448242 C-33.79279397 12.00563779 -28.48634207 9.95634697 -23.1875 7.875 C-15.2438748 4.81463139 -15.2438748 4.81463139 -7.55078125 1.1953125 C-4.67149746 -0.1539384 -3.12925861 -0.59749598 0 0 Z " fill="#608AB2" transform="translate(237,127)"/>
<path d="M0 0 C1.1985937 0.63183518 2.39369999 1.27031388 3.5859375 1.9140625 C4.5591394 2.43492432 4.5591394 2.43492432 5.55200195 2.96630859 C11.65437324 6.28094494 17.54105781 9.92214682 23.4375 13.58666992 C29.44571165 17.29412835 35.55368947 20.56157665 41.9609375 23.5390625 C41.9609375 24.1990625 41.9609375 24.8590625 41.9609375 25.5390625 C42.53513428 25.65677002 43.10933105 25.77447754 43.70092773 25.89575195 C46.12591943 26.58602452 47.95389064 27.54894597 50.12109375 28.83203125 C50.9090332 29.29432129 51.69697266 29.75661133 52.50878906 30.23291016 C53.75354004 30.97226807 53.75354004 30.97226807 55.0234375 31.7265625 C56.74806863 32.73935359 58.47332497 33.75108084 60.19921875 34.76171875 C61.02631348 35.24656738 61.8534082 35.73141602 62.70556641 36.23095703 C65.34623612 37.76253403 68.01826672 39.22607039 70.7109375 40.6640625 C71.85130415 41.30956228 71.85130415 41.30956228 73.01470852 41.96810246 C75.2381413 43.15366002 77.3850424 44.15408185 79.69501591 45.13302517 C89.64646672 49.70098295 89.64646672 49.70098295 91.81927943 54.39231229 C93.1874785 59.90304499 92.84031992 65.55564013 92.66381836 71.18579102 C92.65958299 73.07871665 92.66197065 74.9716669 92.67045593 76.86457825 C92.67474884 81.98589414 92.58677613 87.10190757 92.48184657 92.22199368 C92.38787374 97.57886704 92.37925038 102.93587136 92.36146545 108.29344177 C92.31490018 118.43036082 92.19189473 128.56484421 92.04122311 138.70069212 C91.87337679 150.24326236 91.79104359 161.78595092 91.71579158 173.32943833 C91.55913339 197.0673285 91.29541404 220.80305886 90.9609375 244.5390625 C90.28256836 244.39976318 89.60419922 244.26046387 88.90527344 244.11694336 C87.56384277 243.84442749 87.56384277 243.84442749 86.1953125 243.56640625 C84.86838379 243.29558228 84.86838379 243.29558228 83.51464844 243.01928711 C81.42783749 242.62686291 79.32002055 242.34762219 77.2109375 242.1015625 C73.9609375 241.5390625 73.9609375 241.5390625 71.2734375 240.1640625 C67.18066936 238.15628945 63.10325635 237.27263538 58.66796875 236.28515625 C55.9609375 235.5390625 55.9609375 235.5390625 52.9609375 233.5390625 C51.06559597 233.0100436 49.15016857 232.55135135 47.2265625 232.13671875 C46.09476563 231.88599609 44.96296875 231.63527344 43.796875 231.37695312 C41.42198394 230.86342821 39.04698529 230.35040063 36.671875 229.83789062 C26.89857478 227.67158655 26.89857478 227.67158655 23.1953125 225.97265625 C19.92222231 224.52190251 16.94103439 223.78192908 13.45507812 223.06640625 C8.66770089 222.0541965 3.9450471 220.77298526 -0.7890625 219.5390625 C-1.80355469 219.27867187 -2.81804687 219.01828125 -3.86328125 218.75 C-4.84425781 218.49476563 -5.82523437 218.23953125 -6.8359375 217.9765625 C-7.71604492 217.74839844 -8.59615234 217.52023437 -9.50292969 217.28515625 C-12.1113116 216.51780786 -14.57039128 215.68126743 -17.0390625 214.5390625 C-21.58109362 205.45500026 -17.24600224 189.99574211 -15.0390625 180.5390625 C-14.7090625 179.5490625 -14.3790625 178.5590625 -14.0390625 177.5390625 C-13.91500983 176.06543538 -13.83823679 174.58752139 -13.79296875 173.109375 C-13.76138672 172.23724365 -13.72980469 171.3651123 -13.69726562 170.46655273 C-13.64989258 169.07932007 -13.64989258 169.07932007 -13.6015625 167.6640625 C-13.24437318 158.81378892 -12.69604817 150.0810874 -10.51171875 141.45703125 C-9.03749774 135.47486172 -8.99316066 129.37002138 -9.0703125 123.24609375 C-9.01350607 118.32523703 -8.51014586 113.43496461 -8.0390625 108.5390625 C-8.76222656 108.28898437 -9.48539062 108.03890625 -10.23046875 107.78125 C-13.28625981 106.42973184 -15.4192725 104.80523738 -17.9765625 102.6640625 C-21.55786158 99.72529061 -25.15784581 97.07373462 -29.0390625 94.5390625 C-32.72529656 91.89924327 -36.37991462 89.21624947 -40.0390625 86.5390625 C-41.87194857 85.20511439 -43.70527549 83.8717718 -45.5390625 82.5390625 C-48.22146739 80.58959641 -50.90279449 78.63885261 -53.578125 76.6796875 C-59.75965263 72.16026247 -66.00338197 67.73517622 -72.265625 63.32885742 C-79.90803075 57.94282125 -87.49003434 52.47326134 -95.04785156 46.96923828 C-96.3924689 46.00347463 -97.74906813 45.0542091 -99.11621094 44.12060547 C-100.78947814 42.97249062 -102.41921414 41.76138902 -104.0390625 40.5390625 C-104.0390625 39.8790625 -104.0390625 39.2190625 -104.0390625 38.5390625 C-99.97813031 36.80619803 -95.91502702 35.0784795 -91.8515625 33.3515625 C-90.72041016 32.86880859 -89.58925781 32.38605469 -88.42382812 31.88867188 C-81.62578636 29.00289346 -74.79560441 26.24867178 -67.88549805 23.64208984 C-64.49846849 22.32957595 -61.19146931 20.87652458 -57.88671875 19.37109375 C-56.43525075 18.71747285 -54.95949235 18.11776683 -53.4765625 17.5390625 C-50.85339511 16.50522428 -50.85339511 16.50522428 -47.7265625 14.8203125 C-41.8403963 11.86154097 -35.71228793 9.48869246 -29.6015625 7.0390625 C-27.2481388 6.09253483 -24.89526239 5.14464509 -22.54296875 4.1953125 C-21.42937988 3.74800781 -20.31579102 3.30070312 -19.16845703 2.83984375 C-15.68786321 1.39308108 -12.29265962 -0.19164248 -8.92163086 -1.87695312 C-5.48289601 -2.94366999 -3.13777142 -1.50838883 0 0 Z " fill="#594C9E" transform="translate(369.0390625,75.4609375)"/>
<path d="M0 0 C6.48381771 1.11269224 12.48310521 3.64713861 18.625 5.9375 C19.87751125 6.39803925 21.13011458 6.85832814 22.3828125 7.31835938 C23.56875 7.75857422 24.7546875 8.19878906 25.9765625 8.65234375 C27.06018066 9.05445068 28.14379883 9.45655762 29.26025391 9.87084961 C32 11 32 11 35 13 C36.92250663 13.65030136 38.86317432 14.24765224 40.8125 14.8125 C45.59954527 16.24170664 50.30538183 17.79143236 55 19.5 C59.387495 21.09457417 63.77162037 22.55849142 68.25 23.875 C74.36728373 25.7131619 80.25309908 27.99510259 86.18188477 30.35620117 C91.13472667 32.31576953 96.11358204 34.06972906 101.1875 35.6875 C106.23370157 37.32264257 110.57315089 39.0847579 115 42 C111.84795062 45.51094609 108.36047022 47.66974962 104.25 49.875 C102.81532647 50.66340287 101.38180726 51.45390856 99.94921875 52.24609375 C99.16337402 52.68034668 98.3775293 53.11459961 97.56787109 53.56201172 C92.69600164 56.29022156 87.88195235 59.11805968 83.0625 61.9375 C81.50208984 62.84918945 81.50208984 62.84918945 79.91015625 63.77929688 C75.49091529 66.36366454 71.07444862 68.95252067 66.66796875 71.55859375 C56.5510003 77.54145203 46.35934204 83.38909998 36.14550781 89.20458984 C29.66395536 92.89718299 23.20141051 96.61911363 16.76245117 100.38549805 C12.78734078 102.70873313 8.79960698 105.0099392 4.8125 107.3125 C-2.1900111 111.35961615 -9.17285247 115.4384507 -16.12963867 119.5637207 C-19.476804 121.54237587 -22.84166184 123.47685835 -26.24609375 125.35546875 C-31.862432 128.45936117 -37.39807526 131.69890618 -42.9375 134.9375 C-44.46793945 135.82985352 -44.46793945 135.82985352 -46.02929688 136.74023438 C-50.84555756 139.5525372 -55.64920555 142.38246811 -60.42578125 145.26171875 C-63.66315039 147.21021616 -66.91491085 149.09702201 -70.25 150.875 C-74.74016359 153.30020297 -79.19136646 155.78593933 -83.625 158.3125 C-84.24149414 158.66231934 -84.85798828 159.01213867 -85.49316406 159.37255859 C-88.42058374 160.94562685 -88.42058374 160.94562685 -91 163 C-96.09400845 163.52416609 -98.6685015 162.36501134 -102.875 159.5625 C-104.01237496 158.8238149 -105.15179624 158.08827349 -106.29296875 157.35546875 C-107.19088135 156.77611572 -107.19088135 156.77611572 -108.10693359 156.18505859 C-111.39738073 154.12524039 -114.79287344 152.25632556 -118.1875 150.375 C-122.49671784 147.97553766 -126.78561945 145.56404329 -131 143 C-135.05630377 140.53796487 -139.17281232 138.19312345 -143.3125 135.875 C-156.79893247 128.32136721 -170.22774494 120.66986919 -183.53125 112.7980957 C-190.15308735 108.88867684 -196.83124746 105.07956839 -203.51953125 101.28515625 C-208.62418688 98.38297665 -213.68008333 95.41166045 -218.70825195 92.37890625 C-221.66492573 90.59992538 -224.64192961 88.85934325 -227.625 87.125 C-228.64851563 86.52945313 -229.67203125 85.93390625 -230.7265625 85.3203125 C-231.85191406 84.66675781 -231.85191406 84.66675781 -233 84 C-232.46326624 80.29398121 -231.63374599 78.12524001 -229.25 75.25 C-227.17040818 72.60280195 -225.38396469 70.03849723 -223.8125 67.0625 C-220.96682948 61.75422998 -217.66166502 56.76952349 -214.37158203 51.73071289 C-211.08363513 46.68974505 -207.86167507 41.61330748 -204.6875 36.5 C-201.22667165 30.92945611 -197.70067434 25.41562098 -194 20 C-189.94730662 21.73543553 -186.66883437 24.46220974 -183.25 27.1875 C-182.62456299 27.68290283 -181.99912598 28.17830566 -181.35473633 28.6887207 C-176.78293771 32.32943568 -172.33398004 36.07834364 -168 40 C-158.18399361 49.45827677 -158.18399361 49.45827677 -147 57 C-147 57.66 -147 58.32 -147 59 C-146.43667969 59.24363281 -145.87335938 59.48726563 -145.29296875 59.73828125 C-142.56660719 61.23847679 -140.58456625 63.06178262 -138.3125 65.1875 C-135.20884919 68.03364266 -132.10437152 70.76693955 -128.75 73.3125 C-124.79599299 76.32673421 -121.01551841 79.50641429 -117.25 82.75 C-116.36223877 83.51304443 -116.36223877 83.51304443 -115.45654297 84.29150391 C-112.41220483 86.91162425 -109.37788393 89.54269236 -106.3515625 92.18359375 C-105.19286217 93.18507385 -104.03401383 94.18638273 -102.875 95.1875 C-102.34293945 95.65704102 -101.81087891 96.12658203 -101.26269531 96.61035156 C-98.6122977 98.88965947 -96.53234522 100.56902008 -93 101 C-92.37351563 100.278125 -91.74703125 99.55625 -91.1015625 98.8125 C-90.28429687 97.884375 -89.46703125 96.95625 -88.625 96 C-87.81289063 95.071875 -87.00078125 94.14375 -86.1640625 93.1875 C-85.09285156 92.1046875 -85.09285156 92.1046875 -84 91 C-83.34 91 -82.68 91 -82 91 C-81.01 89.02 -81.01 89.02 -80 87 C-79.34 87 -78.68 87 -78 87 C-77.77699219 86.46890625 -77.55398438 85.9378125 -77.32421875 85.390625 C-75.5433074 82.1755284 -73.20638324 79.51569402 -70.8125 76.75 C-70.31927246 76.17443359 -69.82604492 75.59886719 -69.31787109 75.00585938 C-67.88263987 73.33369066 -66.44182754 71.66648077 -65 70 C-64.30519531 69.19046875 -63.61039063 68.3809375 -62.89453125 67.546875 C-60.53246893 64.81459983 -58.17466765 62.17126503 -55.59375 59.640625 C-52.11680231 56.10084091 -49.14290721 52.23019555 -46.0859375 48.328125 C-44 46 -44 46 -41 45 C-39.76932545 43.49891468 -39.76932545 43.49891468 -38.6875 41.6875 C-36.88573626 39.02261591 -35.83609507 37.89189249 -33.0625 36.0625 C-29.52531007 33.68031087 -27.66683971 31.10061334 -25.296875 27.609375 C-24.86890625 27.07828125 -24.4409375 26.5471875 -24 26 C-23.34 26 -22.68 26 -22 26 C-21.5978125 24.8553125 -21.5978125 24.8553125 -21.1875 23.6875 C-20.04204753 21.09516021 -19.23584819 19.69924463 -17 18 C-16.01 18 -15.02 18 -14 18 C-13.62875 16.91138672 -13.62875 16.91138672 -13.25 15.80078125 C-11.87572546 12.72154736 -10.25344071 10.68533961 -8 8.1875 C-7.29875 7.39730469 -6.5975 6.60710937 -5.875 5.79296875 C-4 4 -4 4 -2 4 C-2 3.34 -2 2.68 -2 2 C-1.34 2 -0.68 2 0 2 C0 1.34 0 0.68 0 0 Z " fill="#5E4E9F" transform="translate(344,328)"/>
<path d="M0 0 C0.18925487 7.07602939 -0.3536587 13.81533004 -1.375 20.8125 C-2.43568538 28.16694608 -3.26497278 35.52032933 -3.94921875 42.91796875 C-4.87287759 52.89615701 -5.95729134 62.84954284 -7.12231445 72.80224609 C-7.43741406 75.49926444 -7.74721159 78.19685712 -8.05664062 80.89453125 C-8.57156407 85.35360391 -9.11072158 89.80924941 -9.66436768 94.26367188 C-9.89489451 96.14310072 -10.11860933 98.0233738 -10.33660889 99.90429688 C-10.67204232 102.78234319 -11.03085153 105.6566528 -11.39453125 108.53125 C-11.49205185 109.40785278 -11.58957245 110.28445557 -11.69004822 111.18762207 C-12.37095974 116.33707668 -13.28797146 119.33685821 -17.25 123 C-19.65234375 124.640625 -19.65234375 124.640625 -22 126 C-23.2779251 126.90675387 -24.54952058 127.82254211 -25.8125 128.75 C-26.864375 129.4925 -27.91625 130.235 -29 131 C-29.639375 131.639375 -30.27875 132.27875 -30.9375 132.9375 C-35.24767908 137.24767908 -40.12146749 141.16295859 -46 143 C-46 143.66 -46 144.32 -46 145 C-48.10974688 146.80964064 -50.22737124 148.50835425 -52.4375 150.1875 C-53.07478027 150.68000244 -53.71206055 151.17250488 -54.36865234 151.67993164 C-56.24127257 153.12592383 -58.11963323 154.56410229 -60 156 C-61.70986793 157.31050017 -63.41850402 158.62261198 -65.125 159.9375 C-65.78757813 160.44152344 -66.45015625 160.94554687 -67.1328125 161.46484375 C-69.07136375 163.00749721 -69.07136375 163.00749721 -70.953125 164.95703125 C-73.0688396 167.06870823 -75.27178744 168.90835539 -77.625 170.75 C-78.40101562 171.36359375 -79.17703125 171.9771875 -79.9765625 172.609375 C-82 174 -82 174 -84 174 C-84 174.66 -84 175.32 -84 176 C-85.7191896 177.41915651 -87.5037681 178.75938566 -89.3125 180.0625 C-94.66907189 183.95972365 -99.765702 188.06222561 -104.8203125 192.34765625 C-107 194 -107 194 -109 194 C-109.28052848 176.78019803 -109.49202756 159.56111055 -109.62174606 142.33954525 C-109.68358292 134.34285467 -109.76785416 126.34758499 -109.90527344 118.35180664 C-110.02501641 111.38119559 -110.10232799 104.41161345 -110.12906194 97.4400025 C-110.14468795 93.74909499 -110.18129486 90.06113031 -110.26876068 86.37116814 C-110.36571437 82.24734921 -110.36787238 78.12861717 -110.36230469 74.00366211 C-110.405448 72.78518082 -110.44859131 71.56669952 -110.49304199 70.31129456 C-110.44204392 66.82184985 -110.27961737 64.25120816 -109 61 C-105.34765299 57.80282022 -101.41824213 55.93843091 -97 54 C-95.19973323 53.03673661 -93.40647628 52.06008662 -91.625 51.0625 C-90.71363281 50.56878906 -89.80226563 50.07507813 -88.86328125 49.56640625 C-78.17425596 43.71879487 -67.69020428 37.49660669 -57.17041016 31.35229492 C-47.79471708 25.87643988 -38.40021416 20.43361602 -29 15 C-25.5413621 13.00052613 -22.08309582 11.00041122 -18.625 9 C-17.83375732 8.54278564 -17.04251465 8.08557129 -16.22729492 7.61450195 C-13.16826191 5.8449149 -10.11804223 4.07206621 -7.1015625 2.23046875 C-4.82590272 0.89806572 -2.67182356 0 0 0 Z " fill="#5668A8" transform="translate(150,66)"/>
<path d="M0 0 C2.3515625 1.8984375 2.3515625 1.8984375 4.625 4.375 C7.04659411 6.97842029 9.02940759 9.01960506 12 11 C12 11.66 12 12.32 12 13 C12.84498047 13.36738281 12.84498047 13.36738281 13.70703125 13.7421875 C16.41956487 15.23015313 18.41557863 17.02502759 20.6875 19.125 C24.85284232 22.95612466 29.08447415 26.68999083 33.3828125 30.37109375 C35 32 35 32 35 34 C35.5671875 34.24878906 36.134375 34.49757812 36.71875 34.75390625 C39.35783826 36.19546302 41.28827664 37.8990283 43.5 39.9375 C44.36625 40.73027344 45.2325 41.52304688 46.125 42.33984375 C47.07375 43.21769531 48.0225 44.09554687 49 45 C50.62846379 46.50583252 52.2575995 48.01090907 53.88867188 49.51391602 C54.94958346 50.49236583 56.00824223 51.47326488 57.06445312 52.45678711 C59.81718308 55.02625829 59.81718308 55.02625829 63 57 C63 57.66 63 58.32 63 59 C63.66 59 64.32 59 65 59 C65 59.66 65 60.32 65 61 C65.54398438 61.22558594 66.08796875 61.45117188 66.6484375 61.68359375 C69.73640119 63.41223787 72.04454974 65.64550144 74.625 68.0625 C78.04209753 71.41533647 78.04209753 71.41533647 82 74 C82 74.66 82 75.32 82 76 C83.32 76.66 84.64 77.32 86 78 C86 78.99 86 79.98 86 81 C84.92105469 81.59425781 83.84210938 82.18851562 82.73046875 82.80078125 C72.30318557 88.55944791 61.95787609 94.44529508 51.66748047 100.44482422 C48.71820114 102.1642924 45.76730109 103.88096215 42.81640625 105.59765625 C40.69000395 106.8357654 38.56370066 108.0740446 36.4375 109.3125 C34.95709229 110.17439941 34.95709229 110.17439941 33.44677734 111.05371094 C32.49367676 111.60961914 31.54057617 112.16552734 30.55859375 112.73828125 C29.63159668 113.27533691 28.70459961 113.81239258 27.74951172 114.36572266 C25.89096857 115.47041879 24.05399416 116.61210174 22.23876953 117.78662109 C21.36720215 118.34559082 20.49563477 118.90456055 19.59765625 119.48046875 C18.83074463 119.98860107 18.06383301 120.4967334 17.27368164 121.02026367 C14.40234854 122.25752983 12.94555019 121.916665 10 121 C7.74609375 119.80078125 7.74609375 119.80078125 5.4375 118.3125 C1.76683761 116.02648096 -1.91835335 114.00511048 -5.8125 112.125 C-11.31536224 109.42627829 -16.46253324 106.32399585 -21.65234375 103.0703125 C-26.76695078 99.90725331 -31.99976355 96.95873151 -37.23388672 94 C-40.16117536 92.34252498 -43.08029869 90.67079285 -46 89 C-49.61246529 86.93282178 -53.22695201 84.87001677 -56.8515625 82.82421875 C-57.48320312 82.46650391 -58.11484375 82.10878906 -58.765625 81.74023438 C-60.52241223 80.74558278 -62.2806919 79.75356853 -64.0390625 78.76171875 C-69.38155084 75.58300867 -69.38155084 75.58300867 -71 74 C-72.58762902 64.20664794 -67.8765244 52.01716575 -65.61230469 42.56396484 C-64.80240767 39.17260183 -64.02588476 35.77429709 -63.25 32.375 C-62.83672678 30.58254755 -62.42067915 28.79072879 -62 27 C-61.94070312 26.27941406 -61.88140625 25.55882812 -61.8203125 24.81640625 C-61 23 -61 23 -58.2265625 21.69140625 C-56.44378906 21.13259766 -56.44378906 21.13259766 -54.625 20.5625 C-49.19744627 18.83555109 -44.15288237 16.73900497 -38.984375 14.34448242 C-33.79279397 12.00563779 -28.48634207 9.95634697 -23.1875 7.875 C-15.2438748 4.81463139 -15.2438748 4.81463139 -7.55078125 1.1953125 C-4.67149746 -0.1539384 -3.12925861 -0.59749598 0 0 Z " fill="#AAC3CF" transform="translate(237,127)"/>
<path d="M0 0 C1.1985937 0.63183518 2.39369999 1.27031388 3.5859375 1.9140625 C4.5591394 2.43492432 4.5591394 2.43492432 5.55200195 2.96630859 C11.65437324 6.28094494 17.54105781 9.92214682 23.4375 13.58666992 C29.44571165 17.29412835 35.55368947 20.56157665 41.9609375 23.5390625 C41.9609375 24.1990625 41.9609375 24.8590625 41.9609375 25.5390625 C42.53513428 25.65677002 43.10933105 25.77447754 43.70092773 25.89575195 C46.12591943 26.58602452 47.95389064 27.54894597 50.12109375 28.83203125 C50.90919434 29.29440186 51.69729492 29.75677246 52.50927734 30.2331543 C53.3389502 30.725979 54.16862305 31.21880371 55.0234375 31.7265625 C56.74545235 32.73807188 58.46810469 33.74849683 60.19140625 34.7578125 C61.01817871 35.2425 61.84495117 35.7271875 62.69677734 36.2265625 C65.38093183 37.78252697 68.09850431 39.26659813 70.8359375 40.7265625 C74.99067751 42.97731929 79.088274 45.31011212 83.1484375 47.7265625 C84.25574219 48.38011719 85.36304688 49.03367188 86.50390625 49.70703125 C87.72013672 50.61388672 87.72013672 50.61388672 88.9609375 51.5390625 C88.9609375 52.5290625 88.9609375 53.5190625 88.9609375 54.5390625 C87.57495117 55.70239258 87.57495117 55.70239258 85.62890625 56.80859375 C84.91774658 57.21980469 84.20658691 57.63101563 83.47387695 58.0546875 C82.70648193 58.48265625 81.93908691 58.910625 81.1484375 59.3515625 C80.37395264 59.79371094 79.59946777 60.23585937 78.80151367 60.69140625 C76.52739796 61.98509179 74.24497115 63.26299404 71.9609375 64.5390625 C70.84976563 65.17199219 69.73859375 65.80492187 68.59375 66.45703125 C64.1457755 68.9520862 59.91786656 71.19935194 54.9609375 72.5390625 C54.9609375 73.1990625 54.9609375 73.8590625 54.9609375 74.5390625 C54.37570312 74.85617188 53.79046875 75.17328125 53.1875 75.5 C44.07783203 80.45150121 35.01045727 85.47856942 25.9609375 90.5390625 C25.33783691 90.88727051 24.71473633 91.23547852 24.07275391 91.59423828 C18.37879412 94.78546344 12.75119072 98.00798661 7.26953125 101.55078125 C6.46193359 102.06584229 5.65433594 102.58090332 4.82226562 103.11157227 C3.23396463 104.12889761 1.65531722 105.16149139 0.08789062 106.21069336 C-5.33863024 109.67112724 -5.33863024 109.67112724 -8.8359375 109.01171875 C-12.92123198 106.28094567 -12.92123198 106.28094567 -14.7265625 104.8515625 C-17.71716229 102.53860798 -20.74486889 100.31902298 -23.8515625 98.1640625 C-29.30651295 94.36895171 -34.6738183 90.45952846 -40.0390625 86.5390625 C-42.79614349 84.53284612 -45.5542398 82.52803224 -48.3125 80.5234375 C-50.0695278 79.24468374 -51.82487023 77.96360945 -53.578125 76.6796875 C-59.75965263 72.16026247 -66.00338197 67.73517622 -72.265625 63.32885742 C-79.90803075 57.94282125 -87.49003434 52.47326134 -95.04785156 46.96923828 C-96.3924689 46.00347463 -97.74906813 45.0542091 -99.11621094 44.12060547 C-100.78947814 42.97249062 -102.41921414 41.76138902 -104.0390625 40.5390625 C-104.0390625 39.8790625 -104.0390625 39.2190625 -104.0390625 38.5390625 C-99.97813031 36.80619803 -95.91502702 35.0784795 -91.8515625 33.3515625 C-90.72041016 32.86880859 -89.58925781 32.38605469 -88.42382812 31.88867188 C-81.62578636 29.00289346 -74.79560441 26.24867178 -67.88549805 23.64208984 C-64.49846849 22.32957595 -61.19146931 20.87652458 -57.88671875 19.37109375 C-56.43525075 18.71747285 -54.95949235 18.11776683 -53.4765625 17.5390625 C-50.85339511 16.50522428 -50.85339511 16.50522428 -47.7265625 14.8203125 C-41.8403963 11.86154097 -35.71228793 9.48869246 -29.6015625 7.0390625 C-27.2481388 6.09253483 -24.89526239 5.14464509 -22.54296875 4.1953125 C-21.42937988 3.74800781 -20.31579102 3.30070312 -19.16845703 2.83984375 C-15.68786321 1.39308108 -12.29265962 -0.19164248 -8.92163086 -1.87695312 C-5.48289601 -2.94366999 -3.13777142 -1.50838883 0 0 Z " fill="#9CAAC7" transform="translate(369.0390625,75.4609375)"/>
<path d="M0 0 C4.05269338 1.73543553 7.33116563 4.46220974 10.75 7.1875 C11.37543701 7.68290283 12.00087402 8.17830566 12.64526367 8.6887207 C17.21706229 12.32943568 21.66601996 16.07834364 26 20 C35.81600639 29.45827677 35.81600639 29.45827677 47 37 C47 37.66 47 38.32 47 39 C47.56332031 39.24363281 48.12664062 39.48726563 48.70703125 39.73828125 C51.43339281 41.23847679 53.41543375 43.06178262 55.6875 45.1875 C58.79115081 48.03364266 61.89562848 50.76693955 65.25 53.3125 C71.09743772 57.77014178 76.60416678 62.62105858 82.16845703 67.42285156 C85.1643239 70.00260362 88.17360253 72.56635337 91.1875 75.125 C91.72793945 75.58616211 92.26837891 76.04732422 92.82519531 76.52246094 C95.15495341 78.49836937 97.45379814 80.30253209 100 82 C100.36076355 84.51834106 100.36076355 84.51834106 100.34057617 87.73486328 C100.34034958 88.93595734 100.34012299 90.13705139 100.33988953 91.37454224 C100.32440567 92.67664642 100.30892181 93.97875061 100.29296875 95.3203125 C100.28737416 96.66266405 100.28310341 98.00502173 100.28010559 99.34738159 C100.26864585 102.88210941 100.23916959 106.41646798 100.20599365 109.9510498 C100.17531671 113.55715947 100.16160538 117.16332874 100.14648438 120.76953125 C100.11430052 127.84650532 100.06309094 134.92322857 100 142 C95.6646912 140.80066287 91.85406158 139.59707456 87.9375 137.375 C86.9990625 136.84648437 86.060625 136.31796875 85.09375 135.7734375 C84.0728125 135.18820312 83.051875 134.60296875 82 134 C80.8553125 133.35289062 79.710625 132.70578125 78.53125 132.0390625 C73.35825468 129.10899321 68.2082063 126.1465966 63.125 123.0625 C58.35996564 120.18185524 53.5118229 117.4569193 48.65454102 114.73632812 C35.84767424 107.55916193 23.10354002 100.274186 10.46875 92.7980957 C3.84691265 88.88867684 -2.83124746 85.07956839 -9.51953125 81.28515625 C-14.62418688 78.38297665 -19.68008333 75.41166045 -24.70825195 72.37890625 C-27.66492573 70.59992538 -30.64192961 68.85934325 -33.625 67.125 C-34.64851563 66.52945313 -35.67203125 65.93390625 -36.7265625 65.3203125 C-37.85191406 64.66675781 -37.85191406 64.66675781 -39 64 C-38.46326624 60.29398121 -37.63374599 58.12524001 -35.25 55.25 C-33.17040818 52.60280195 -31.38396469 50.03849723 -29.8125 47.0625 C-26.96682948 41.75422998 -23.66166502 36.76952349 -20.37158203 31.73071289 C-17.08363513 26.68974505 -13.86167507 21.61330748 -10.6875 16.5 C-7.22667165 10.92945611 -3.70067434 5.41562098 0 0 Z " fill="#68AABA" transform="translate(150,348)"/>
<path d="M0 0 C1.2019843 3.74589081 1.08884512 7.27384589 1.03759766 11.18579102 C1.02559578 12.26278008 1.02559578 12.26278008 1.01335144 13.36152649 C0.98543181 15.74241581 0.94989265 18.1231238 0.9140625 20.50390625 C0.8922431 22.18228187 0.87079589 23.86066236 0.84970093 25.53904724 C0.8041368 29.07401802 0.75497354 32.60891475 0.703125 36.14379883 C0.63805236 40.59002949 0.58034533 45.03631632 0.52486038 49.48267555 C0.41852058 57.98724647 0.28177575 66.49053534 0.11250687 74.99408913 C0.02895011 79.43985453 -0.00879753 83.88148328 0.01265144 88.32796955 C0.02187404 91.41541868 -0.01367091 94.50251303 -0.0390625 97.58984375 C-0.01725922 98.66343643 0.00454407 99.73702911 0.02700806 100.84315491 C-0.0881889 107.87207133 -0.0881889 107.87207133 -2.75042725 111.16531372 C-4.75706465 112.9339671 -6.80834347 114.47105954 -9 116 C-11.64821581 118.52504298 -14.01865876 121.02319738 -16.3125 123.875 C-18.91857896 127.08502742 -21.95634537 129.65642632 -25.1328125 132.2890625 C-27.08741137 133.96775394 -27.08741137 133.96775394 -28.6171875 136.2109375 C-29.30167969 137.09652344 -29.30167969 137.09652344 -30 138 C-30.66 138 -31.32 138 -32 138 C-32.25394531 138.59296875 -32.50789063 139.1859375 -32.76953125 139.796875 C-34.13626374 142.24397699 -35.51742982 143.49347954 -37.6875 145.25 C-40.55945993 147.66740512 -43.04157752 150.11145795 -45.4375 153 C-48.62513179 156.78393243 -52.19039999 159.64724067 -56.1796875 162.5546875 C-58.1186215 163.88524995 -58.1186215 163.88524995 -59 166 C-59.66 166 -60.32 166 -61 166 C-61.226875 166.556875 -61.45375 167.11375 -61.6875 167.6875 C-63.95600449 171.68438886 -66.61899946 174.53966649 -71 176 C-71.33 176.99 -71.66 177.98 -72 179 C-72.33 179 -72.66 179 -73 179 C-73 134.12 -73 89.24 -73 43 C-67.72 40.03 -62.44 37.06 -57 34 C-51.47285215 30.69461586 -51.47285215 30.69461586 -45.95703125 27.37109375 C-39.22888754 23.3219838 -32.41584718 19.41750132 -25.60888672 15.50292969 C-22.80000912 13.88478908 -19.99574757 12.25880056 -17.19140625 10.6328125 C-15.27359724 9.5257649 -13.35563193 8.41898801 -11.4375 7.3125 C-10.52661621 6.78293701 -9.61573242 6.25337402 -8.67724609 5.70776367 C-7.83371582 5.22283447 -6.99018555 4.73790527 -6.12109375 4.23828125 C-5.3727124 3.80555908 -4.62433105 3.37283691 -3.85327148 2.92700195 C-2 2 -2 2 0 2 C0 1.34 0 0.68 0 0 Z " fill="#4D439A" transform="translate(323,206)"/>
<path d="M0 0 C3.45156403 1.69589015 6.75360916 3.60511961 10.0625 5.5625 C10.99626465 6.10535645 11.9300293 6.64821289 12.89208984 7.20751953 C19.04537704 10.79986416 25.12297025 14.50210339 31.16796875 18.2734375 C34.73888626 20.45046583 38.39208005 22.44017452 42.078125 24.4140625 C47.7760344 27.50677803 53.38043628 30.76772539 59 34 C59 34.99 59 35.98 59 37 C58.05769531 37.38542969 57.11539063 37.77085938 56.14453125 38.16796875 C51.19317489 40.29211183 46.45292797 42.80492017 41.6875 45.3125 C40.80126953 45.77333984 39.91503906 46.23417969 39.00195312 46.70898438 C33.73711807 49.47004667 28.62016476 52.39923439 23.54125977 55.48730469 C19.10306774 58.12915672 14.54830265 60.55435263 10 63 C8.30690465 63.91725475 6.61418959 64.83521181 4.921875 65.75390625 C4.08285645 66.20918701 3.24383789 66.66446777 2.37939453 67.13354492 C-9.28116977 73.47052569 -20.84765387 79.96417635 -32.38769531 86.51757812 C-72.00592885 109 -72.00592885 109 -76 109 C-77.39200104 98.79692852 -78.44248772 88.60469928 -79.21435547 78.33569336 C-79.6681151 72.65674766 -80.45856876 67.15036739 -81.52783203 61.55541992 C-82.17438957 58.05618631 -82.60647322 54.60709013 -82.9375 51.0625 C-83.13666016 49.19271484 -83.13666016 49.19271484 -83.33984375 47.28515625 C-83 44 -83 44 -80.8515625 41.74609375 C-78.08512334 40.05212347 -75.32583588 38.47685882 -72.4375 37 C-66.45265944 33.84757545 -60.65993205 30.44221631 -54.875 26.9375 C-49.0163535 23.393607 -43.15782922 19.91521525 -37.11328125 16.6953125 C-30.64555739 13.173365 -24.28000342 9.46626318 -17.890625 5.8046875 C-17.05080078 5.32870117 -16.21097656 4.85271484 -15.34570312 4.36230469 C-13.88125122 3.51180077 -12.43329747 2.6313926 -11.01367188 1.70800781 C-6.86315037 -0.94586571 -4.68749232 -1.61222196 0 0 Z " fill="#8D8EBE" transform="translate(254,9)"/>
<path d="M0 0 C0.18925487 7.07602939 -0.3536587 13.81533004 -1.375 20.8125 C-2.43568538 28.16694608 -3.26497278 35.52032933 -3.94921875 42.91796875 C-4.87287759 52.89615701 -5.95729134 62.84954284 -7.12231445 72.80224609 C-7.43741406 75.49926444 -7.74721159 78.19685712 -8.05664062 80.89453125 C-9.49280142 93.29555893 -11.17813689 105.64998361 -13 118 C-15.99516321 116.84298991 -18.84209789 115.62784303 -21.63671875 114.046875 C-22.29736328 113.67433594 -22.95800781 113.30179687 -23.63867188 112.91796875 C-24.31478516 112.53253906 -24.99089844 112.14710938 -25.6875 111.75 C-26.67266602 111.19505859 -26.67266602 111.19505859 -27.67773438 110.62890625 C-31.44879731 108.49379236 -35.17948865 106.30014496 -38.890625 104.0625 C-43.90240477 101.0428583 -48.97346921 98.13699081 -54.0625 95.25 C-60.48982881 91.59291552 -66.89199585 87.90124063 -73.25 84.125 C-84.37258827 77.5278324 -95.69960915 71.2857147 -107 65 C-107 64.34 -107 63.68 -107 63 C-107.66 63 -108.32 63 -109 63 C-109 62.34 -109 61.68 -109 61 C-106.76171875 59.484375 -106.76171875 59.484375 -103.6875 57.75 C-102.58535156 57.12480469 -101.48320313 56.49960938 -100.34765625 55.85546875 C-96.52995046 53.73947079 -92.70118758 51.64549836 -88.86328125 49.56640625 C-78.17425596 43.71879487 -67.69020428 37.49660669 -57.17041016 31.35229492 C-47.79471708 25.87643988 -38.40021416 20.43361602 -29 15 C-25.5413621 13.00052613 -22.08309582 11.00041122 -18.625 9 C-17.83375732 8.54278564 -17.04251465 8.08557129 -16.22729492 7.61450195 C-13.16826191 5.8449149 -10.11804223 4.07206621 -7.1015625 2.23046875 C-4.82590272 0.89806572 -2.67182356 0 0 0 Z " fill="#9BA9C6" transform="translate(150,66)"/>
<path d="M0 0 C1.32 0.66 2.64 1.32 4 2 C2.92250558 2.82022749 1.83770492 3.63086169 0.75 4.4375 C-0.15492187 5.11619141 -0.15492187 5.11619141 -1.078125 5.80859375 C-3 7 -3 7 -5.1328125 7.50390625 C-7.30480614 7.85763398 -7.30480614 7.85763398 -8.625 10.5 C-9.07875 11.325 -9.5325 12.15 -10 13 C-10.99 13.495 -10.99 13.495 -12 14 C-12.0154612 14.82327286 -12.0154612 14.82327286 -12.03123474 15.66317749 C-12.14099376 21.47279842 -12.25541211 27.2823154 -12.37231445 33.09179688 C-12.4151312 35.24834987 -12.4568328 37.40492535 -12.49731445 39.56152344 C-12.74533812 52.72821177 -13.14870097 65.85761422 -14 79 C-14.33 79 -14.66 79 -15 79 C-15.18590591 70.5330607 -15.32777634 62.06698305 -15.41449738 53.59850311 C-15.45613438 49.66551801 -15.51254137 45.73393562 -15.60351562 41.80175781 C-15.69086839 38.00204335 -15.73836044 34.20367191 -15.75901794 30.4030304 C-15.77372513 28.95806239 -15.80244752 27.51316254 -15.84584045 26.06877136 C-16.17050096 14.80729938 -16.17050096 14.80729938 -13.30639648 10.38500977 C-11.30484577 8.34214211 -9.32508205 6.65916115 -7 5 C-6.31522583 4.47950073 -5.63045166 3.95900146 -4.92492676 3.42272949 C-3.31722824 2.23446605 -1.66340662 1.10893775 0 0 Z " fill="#4F688A" transform="translate(55,292)"/>
<path d="M0 0 C0.66 0.33 1.32 0.66 2 1 C-5.16910488 5.47771335 -12.3672332 9.85169836 -19.74633789 13.97607422 C-22.76609063 15.67576482 -25.70850669 17.43698065 -28.59765625 19.3515625 C-29.17966797 19.73183594 -29.76167969 20.11210937 -30.36132812 20.50390625 C-31.97021333 21.56418192 -33.56564624 22.644789 -35.16015625 23.7265625 C-38 25 -38 25 -40.7265625 24.3359375 C-43.28099787 22.83487754 -45.0905034 21.26310708 -47 19 C-47 18.34 -47 17.68 -47 17 C-45.35 16.67 -43.7 16.34 -42 16 C-41.67 17.65 -41.34 19.3 -41 21 C-37.04 20.505 -37.04 20.505 -33 20 C-33 18.68 -33 17.36 -33 16 C-32.2575 15.855625 -31.515 15.71125 -30.75 15.5625 C-29.8425 15.376875 -28.935 15.19125 -28 15 C-27.2575 14.87625 -26.515 14.7525 -25.75 14.625 C-25.1725 14.41875 -24.595 14.2125 -24 14 C-23.67 13.01 -23.34 12.02 -23 11 C-21.0390625 10.15625 -21.0390625 10.15625 -18.625 9.5 C-15.12203186 8.54153315 -13.50367852 7.57558573 -11 5 C-8.80859375 3.8671875 -8.80859375 3.8671875 -6.4375 2.875 C-5.65246094 2.54242188 -4.86742187 2.20984375 -4.05859375 1.8671875 C-3.37925781 1.58101562 -2.69992187 1.29484375 -2 1 C-1.34 0.67 -0.68 0.34 0 0 Z " fill="#A4B4D1" transform="translate(401,160)"/>
<path d="M0 0 C0 0.99 0 1.98 0 3 C-0.45375 3.433125 -0.9075 3.86625 -1.375 4.3125 C-5.74973474 8.85549377 -5.30382873 15.3221264 -5.31884766 21.21826172 C-5.32889328 22.12621994 -5.3389389 23.03417816 -5.34928894 23.96965027 C-5.38006052 26.95632319 -5.39713938 29.94290672 -5.4140625 32.9296875 C-5.43277898 35.00620286 -5.45235276 37.08271065 -5.4727478 39.15921021 C-5.52402416 44.61384618 -5.56367403 50.06850679 -5.60089111 55.52325439 C-5.64095889 61.09368972 -5.6920386 66.66402292 -5.7421875 72.234375 C-5.83889359 83.15617821 -5.92331546 94.07803915 -6 105 C-6.33 105 -6.66 105 -7 105 C-7 71.67 -7 38.34 -7 4 C-4.69 2.68 -2.38 1.36 0 0 Z " fill="#414693" transform="translate(257,245)"/>
<path d="M0 0 C0.33 0.99 0.66 1.98 1 3 C0.34 3 -0.32 3 -1 3 C-1.33 4.32 -1.66 5.64 -2 7 C-2.66 7 -3.32 7 -4 7 C-3.67 24.82 -3.34 42.64 -3 61 C-1.02 61 0.96 61 3 61 C3.33 60.01 3.66 59.02 4 58 C4.99 58.33 5.98 58.66 7 59 C7 58.34 7 57.68 7 57 C8.32 57.33 9.64 57.66 11 58 C8.96807833 59.35059482 6.92657452 60.6798564 4.875 62 C4.30523437 62.3815625 3.73546875 62.763125 3.1484375 63.15625 C-0.73697647 65.62878616 -3.41420991 66.44603429 -8 66 C-8.33 65.34 -8.66 64.68 -9 64 C-7.68 64.33 -6.36 64.66 -5 65 C-5.01665459 63.88912773 -5.01665459 63.88912773 -5.03364563 62.7558136 C-5.13394258 55.76734321 -5.21001306 48.77898077 -5.25906086 41.78997517 C-5.28512544 38.1969914 -5.32046329 34.60460364 -5.37719727 31.01196289 C-5.43163335 27.54301814 -5.46144416 24.07464561 -5.47438622 20.60530663 C-5.48808449 18.64148949 -5.52710018 16.67790175 -5.56648254 14.71443176 C-5.56960611 4.78210277 -5.56960611 4.78210277 -2.46948242 1.64916992 C-1.65455322 1.10494385 -0.83962402 0.56071777 0 0 Z " fill="#4F5398" transform="translate(255,425)"/>
<path d="M0 0 C0.66 0.33 1.32 0.66 2 1 C1.85904936 2.6254308 1.71207913 4.25034051 1.5625 5.875 C1.48128906 6.77992188 1.40007812 7.68484375 1.31640625 8.6171875 C1 11 1 11 0 13 C-1.997451 22.05094983 -2.34608919 31.1618674 -2.5703125 40.39550781 C-2.83436875 48.87831471 -2.83436875 48.87831471 -5 53 C-5.33 53 -5.66 53 -6 53 C-5.96970703 52.2793335 -5.93941406 51.55866699 -5.90820312 50.81616211 C-5.77063826 47.52333533 -5.63530046 44.23042057 -5.5 40.9375 C-5.45230469 39.80376953 -5.40460938 38.67003906 -5.35546875 37.50195312 C-5.06691471 30.6300771 -5.06691471 30.6300771 -5.03125 23.75390625 C-5 21 -5 21 -4 20 C-3.835 18.845 -3.67 17.69 -3.5 16.5 C-3 13 -3 13 -2 12 C-1.60430892 9.98688551 -1.25747809 7.96402792 -0.9375 5.9375 C-0.76089844 4.83277344 -0.58429688 3.72804687 -0.40234375 2.58984375 C-0.26957031 1.73519531 -0.13679688 0.88054687 0 0 Z " fill="#42407F" transform="translate(359,206)"/>
<path d="M0 0 C0.66 0.33 1.32 0.66 2 1 C0.06925078 3.15226153 -1.86903417 5.29677351 -3.8125 7.4375 C-4.35970703 8.04916016 -4.90691406 8.66082031 -5.47070312 9.29101562 C-6.00244141 9.87431641 -6.53417969 10.45761719 -7.08203125 11.05859375 C-7.56905518 11.59798584 -8.0560791 12.13737793 -8.55786133 12.69311523 C-10 14 -10 14 -13 15 C-13.71304988 16.30911501 -14.37468542 17.64678017 -15 19 C-20.02488177 25.5380564 -26.13029205 31.23658455 -32 37 C-32.66 36.67 -33.32 36.34 -34 36 C-33.57589844 35.5875 -33.15179688 35.175 -32.71484375 34.75 C-25.80752109 27.94894384 -19.67735836 20.70733945 -13.796875 13.00390625 C-12 11 -12 11 -9 10 C-7.6990729 8.46837091 -7.6990729 8.46837091 -6.5625 6.625 C-4.66078716 3.81853287 -2.90898863 1.83158543 0 0 Z " fill="#4D488B" transform="translate(312,363)"/>
<path d="M0 0 C0.99 0.66 1.98 1.32 3 2 C6.63939932 1.68269476 6.63939932 1.68269476 10 1 C10.33 2.65 10.66 4.3 11 6 C13.83002896 5.09953624 16.54255983 4.23525495 19.1875 2.875 C21 2 21 2 24 2 C24 2.66 24 3.32 24 4 C21.98828125 5.54296875 21.98828125 5.54296875 19.3125 7.1875 C18.44238281 7.73792969 17.57226562 8.28835937 16.67578125 8.85546875 C13.46960825 10.2268683 12.26415152 10.12380804 9 9 C6.359375 7.66015625 6.359375 7.66015625 3.75 6.0625 C2.87859375 5.53785156 2.0071875 5.01320312 1.109375 4.47265625 C-1 3 -1 3 -2 1 C-1.34 0.67 -0.68 0.34 0 0 Z " fill="#B1D2DB" transform="translate(238,239)"/>
<path d="M0 0 C0.33 0 0.66 0 1 0 C1 25.08 1 50.16 1 76 C-0.98 74.68 -2.96 73.36 -5 72 C-4.505 71.01 -4.505 71.01 -4 70 C-2.68 70.66 -1.36 71.32 0 72 C0 48.24 0 24.48 0 0 Z " fill="#668CB7" transform="translate(249,309)"/>
<path d="M0 0 C1.0625 1.8125 1.0625 1.8125 2 4 C0.87994369 7.36016893 -0.37211797 8.69064913 -3 11 C-3.66 11 -4.32 11 -5 11 C-5.68707555 13.49064888 -6 15.37886292 -6 18 C-6.3062434 19.33981486 -6.63451555 20.67511887 -7 22 C-6.34 22.33 -5.68 22.66 -5 23 C-4.67 23.99 -4.34 24.98 -4 26 C-6.9719385 24.87548273 -9.33440687 23.77706209 -12 22 C-11.70686083 17.30977324 -9.42879045 14.74199564 -6.6328125 11.203125 C-4.02879858 7.68957511 -2.02370699 3.86832487 0 0 Z M3 1 C5 2 5 2 5 2 Z " fill="#6691AE" transform="translate(123,390)"/>
<path d="M0 0 C0 6.54333481 -8.41959679 12.43587731 -12.90234375 16.921875 C-14.93918889 18.95410365 -16.98062749 20.98097405 -19.03344727 22.99707031 C-19.66178467 23.61678711 -20.29012207 24.23650391 -20.9375 24.875 C-21.50339844 25.42929687 -22.06929688 25.98359375 -22.65234375 26.5546875 C-24.1068614 27.977986 -24.1068614 27.977986 -25 30 C-27.0625 30.625 -27.0625 30.625 -29 31 C-29 30.34 -29 29.68 -29 29 C-28.34 29 -27.68 29 -27 29 C-26.61328125 28.12601562 -26.61328125 28.12601562 -26.21875 27.234375 C-24.90165983 24.8197097 -23.44911616 23.18259823 -21.5 21.25 C-20.8915625 20.63640625 -20.283125 20.0228125 -19.65625 19.390625 C-18 18 -18 18 -16 18 C-15.7525 17.4225 -15.505 16.845 -15.25 16.25 C-13.81700012 13.67060021 -12.21575324 11.93878408 -10 10 C-9.34 10 -8.68 10 -8 10 C-7.690625 9.195625 -7.690625 9.195625 -7.375 8.375 C-5.42003056 4.9982346 -2.81776305 2.69525161 0 0 Z " fill="#3B3B74" transform="translate(320,315)"/>
<path d="M0 0 C0.33 0 0.66 0 1 0 C1 13.86 1 27.72 1 42 C-0.32 41.34 -1.64 40.68 -3 40 C-3.125 37.125 -3.125 37.125 -3 34 C-2.34 33.34 -1.68 32.68 -1 32 C-0.73758854 28.92201678 -0.73758854 28.92201678 -0.83984375 25.3125 C-0.84504532 24.65419189 -0.85024689 23.99588379 -0.85560608 23.31762695 C-0.87343877 21.21152831 -0.90461011 19.1059132 -0.9375 17 C-0.96510769 14.8941337 -0.98982106 12.78833631 -1.00868225 10.68237305 C-1.02656029 8.77124988 -1.05395574 6.86022289 -1.08178711 4.94921875 C-1 2 -1 2 0 0 Z " fill="#75AAC0" transform="translate(249,448)"/>
<path d="M0 0 C0 0.66 0 1.32 0 2 C-0.73935791 2.40726318 -0.73935791 2.40726318 -1.49365234 2.82275391 C-3.78849283 4.08826338 -6.08193954 5.35626799 -8.375 6.625 C-9.19685791 7.0792334 -10.01871582 7.5334668 -10.86547852 8.00146484 C-16.05017412 10.87952083 -21.15271098 13.8470571 -26.15234375 17.0390625 C-28 18 -28 18 -31 18 C-30.505 16.515 -30.505 16.515 -30 15 C-29.01 15 -28.02 15 -27 15 C-26.67 14.34 -26.34 13.68 -26 13 C-24.5459375 12.566875 -24.5459375 12.566875 -23.0625 12.125 C-19.89283667 11.34235253 -19.89283667 11.34235253 -18.875 8.9375 C-18.58625 8.298125 -18.2975 7.65875 -18 7 C-16.25 6.3125 -16.25 6.3125 -14 6 C-12.39125 5.7215625 -12.39125 5.7215625 -10.75 5.4375 C-9.8425 5.293125 -8.935 5.14875 -8 5 C-8 3.68 -8 2.36 -8 1 C-5.23735711 0.40267181 -2.83967231 0 0 0 Z " fill="#B0C7DA" transform="translate(314,211)"/>
<path d="M0 0 C4.05261821 0.34871366 7.61188089 2.77598231 11.125 4.6875 C11.7857251 5.04328125 12.4464502 5.3990625 13.12719727 5.765625 C18.5136829 8.68693127 23.79447068 11.76644767 29 15 C25.37673261 16.2077558 24.35853631 15.54311128 21 14 C21 13.34 21 12.68 21 12 C20.0925 12.103125 19.185 12.20625 18.25 12.3125 C17.1775 12.209375 16.105 12.10625 15 12 C13.65576661 10.34211215 12.32381517 8.67423683 11 7 C8.42462445 5.70414507 5.74353398 4.86923849 3 4 C1.33094605 3.33933281 -0.3369416 2.67561748 -2 2 C-1.34 1.34 -0.68 0.68 0 0 Z " fill="#727398" transform="translate(362,73)"/>
<path d="M0 0 C0.66 0 1.32 0 2 0 C2 0.66 2 1.32 2 2 C2.8971875 1.7215625 2.8971875 1.7215625 3.8125 1.4375 C6 1 6 1 9 2 C9.99 1.67 10.98 1.34 12 1 C14.125 7.75 14.125 7.75 13 10 C8.39163524 8.68332435 4.77237287 6.98280646 1 4 C0.125 1.75 0.125 1.75 0 0 Z " fill="#6BB1B3" transform="translate(233,479)"/>
<path d="M0 0 C0.50471523 2.01886091 1.0025802 4.01419112 1.375 6.0625 C2.11919817 8.36951432 3.190755 9.42674348 5 11 C4.01 11 3.02 11 2 11 C1.67 11.66 1.34 12.32 1 13 C0.01 12.34 -0.98 11.68 -2 11 C-6.52633674 13.82896047 -10.30889999 17.01541715 -14.16796875 20.70703125 C-14.77253906 21.13371094 -15.37710938 21.56039062 -16 22 C-16.99 21.67 -17.98 21.34 -19 21 C-16.91784697 19.22776281 -14.83433081 17.45717274 -12.75 15.6875 C-12.16347656 15.18798828 -11.57695312 14.68847656 -10.97265625 14.17382812 C-10.39902344 13.68720703 -9.82539063 13.20058594 -9.234375 12.69921875 C-8.6765332 12.22572998 -8.11869141 11.75224121 -7.54394531 11.2644043 C-6 10 -6 10 -3.65625 8.375 C-0.99001614 6.16152284 -0.74084367 3.27205954 0 0 Z " fill="#5D73A0" transform="translate(166,194)"/>
<path d="M0 0 C-0.598125 0.433125 -1.19625 0.86625 -1.8125 1.3125 C-3.99065003 2.89625381 -3.99065003 2.89625381 -5.5625 4.6875 C-7 6 -7 6 -10 6 C-13.83145088 7.64205038 -15.65592898 8.48389346 -18 12 C-19.65 11.67 -21.3 11.34 -23 11 C-19.79463622 7.5811094 -16.10777023 5.54606206 -12.0625 3.25 C-11.34642578 2.82589844 -10.63035156 2.40179688 -9.89257812 1.96484375 C-9.19712891 1.56910156 -8.50167969 1.17335938 -7.78515625 0.765625 C-7.15488525 0.40243164 -6.52461426 0.03923828 -5.87524414 -0.33496094 C-3.54852555 -1.1601115 -2.29630397 -0.79478886 0 0 Z " fill="#706895" transform="translate(252,9)"/>
<path d="M0 0 C1 3 1 3 0 6 C-0.7425 6.0825 -1.485 6.165 -2.25 6.25 C-5.11719068 6.78089547 -5.11719068 6.78089547 -6.9375 9 C-9.53860145 11.5222802 -11.45840313 11.67803665 -15 12 C-14.34 11.01 -13.68 10.02 -13 9 C-12.34 9 -11.68 9 -11 9 C-11 8.34 -11 7.68 -11 7 C-9.1015625 5.2734375 -9.1015625 5.2734375 -6.625 3.375 C-5.81289062 2.74335938 -5.00078125 2.11171875 -4.1640625 1.4609375 C-2 0 -2 0 0 0 Z " fill="#5C72A1" transform="translate(71,280)"/>
<path d="M0 0 C-2.43044383 3.64566574 -3.82388959 3.9977335 -8 5 C-10.375 4.625 -10.375 4.625 -12 4 C-12 4.99 -12 5.98 -12 7 C-15.72430357 7.69289369 -19.21083746 8.11144596 -23 8 C-19.18323267 5.45548844 -15.19662243 3.97419045 -10.9375 2.3125 C-10.10927734 1.97927734 -9.28105469 1.64605469 -8.42773438 1.30273438 C-7.63560547 0.99271484 -6.84347656 0.68269531 -6.02734375 0.36328125 C-4.94054321 -0.06537231 -4.94054321 -0.06537231 -3.83178711 -0.50268555 C-2 -1 -2 -1 0 0 Z " fill="#6B6A91" transform="translate(358,77)"/>
<path d="M0 0 C0.66 0 1.32 0 2 0 C2.66 0.66 3.32 1.32 4 2 C5.89756126 2.85334444 5.89756126 2.85334444 8 3.5625 C10.07697972 4.29936964 12.02750187 5.01375093 14 6 C14 6.99 14 7.98 14 9 C9.28143404 8.53739549 5.75368013 8.00294411 2 5 C0.6875 2.3125 0.6875 2.3125 0 0 Z " fill="#73BDC0" transform="translate(218,470)"/>
<path d="M0 0 C-2.28688534 3.43032801 -2.34430644 3.1644129 -6 4 C-9.37676373 5.768781 -10.85086697 6.77630045 -13 10 C-15.625 10.6875 -15.625 10.6875 -18 11 C-17.04919032 7.73610946 -16.34200242 6.25388586 -13.57421875 4.19921875 C-12.62160156 3.70035156 -11.66898437 3.20148438 -10.6875 2.6875 C-9.74261719 2.17574219 -8.79773438 1.66398438 -7.82421875 1.13671875 C-4.95738359 -0.01715266 -3.05262993 -0.23909488 0 0 Z " fill="#525096" transform="translate(418,155)"/>
<path d="M0 0 C-0.59699131 3.33135891 -1.72012281 5.21275667 -3.9375 7.75 C-4.46214844 8.36359375 -4.98679687 8.9771875 -5.52734375 9.609375 C-7 11 -7 11 -9 11 C-9 11.66 -9 12.32 -9 13 C-9.66 13 -10.32 13 -11 13 C-11 13.66 -11 14.32 -11 15 C-11.66 15 -12.32 15 -13 15 C-13.33 14.01 -13.66 13.02 -14 12 C-12.35 11.34 -10.7 10.68 -9 10 C-9 9.34 -9 8.68 -9 8 C-8.34 8 -7.68 8 -7 8 C-6.9175 7.236875 -6.835 6.47375 -6.75 5.6875 C-5.75308799 2.11523197 -3.86720593 0 0 0 Z " fill="#597294" transform="translate(103,352)"/>
<path d="M0 0 C0 0.66 0 1.32 0 2 C-0.99 2.33 -1.98 2.66 -3 3 C-4.2263757 5.45275141 -4.11415314 7.0505781 -4.09765625 9.7890625 C-4.09443359 10.73007812 -4.09121094 11.67109375 -4.08789062 12.640625 C-4.07951172 13.62546875 -4.07113281 14.6103125 -4.0625 15.625 C-4.05798828 16.61757812 -4.05347656 17.61015625 -4.04882812 18.6328125 C-4.03702145 21.0886016 -4.020554 23.54427104 -4 26 C-4.33 26 -4.66 26 -5 26 C-5.48108592 22.42111385 -5.90216471 18.83763093 -6.3125 15.25 C-6.44978516 14.23421875 -6.58707031 13.2184375 -6.72851562 12.171875 C-7.03244866 9.37200704 -7.25480582 6.80572698 -7 4 C-3.54913295 0 -3.54913295 0 0 0 Z " fill="#5C5881" transform="translate(178,49)"/>
<path d="M0 0 C0.33 0 0.66 0 1 0 C1 7.59 1 15.18 1 23 C1.99 23.33 2.98 23.66 4 24 C2.02 23.67 0.04 23.34 -2 23 C-2.20483028 15.00023956 -2.13480153 7.73865554 0 0 Z " fill="#40417C" transform="translate(351,267)"/>
<path d="M0 0 C0.66 0.33 1.32 0.66 2 1 C1.38125 1.5775 0.7625 2.155 0.125 2.75 C-2.07613393 4.79387088 -2.07613393 4.79387088 -2.8125 7.125 C-4 9 -4 9 -7.625 10.25 C-8.73875 10.4975 -9.8525 10.745 -11 11 C-10.34 9.35 -9.68 7.7 -9 6 C-8.01 6 -7.02 6 -6 6 C-6 5.01 -6 4.02 -6 3 C-4.03533587 1.93224776 -2.03144641 0.93446535 0 0 Z " fill="#8C8BB7" transform="translate(184,45)"/>
<path d="M0 0 C1.32 0.33 2.64 0.66 4 1 C1.96807833 2.35059482 -0.07342548 3.6798564 -2.125 5 C-2.97964844 5.57234375 -2.97964844 5.57234375 -3.8515625 6.15625 C-7.73697647 8.62878616 -10.41420991 9.44603429 -15 9 C-15.33 8.34 -15.66 7.68 -16 7 C-15.05125 6.87625 -14.1025 6.7525 -13.125 6.625 C-9.91332809 6.28312823 -9.91332809 6.28312823 -8 4 C-6.68 4 -5.36 4 -4 4 C-3.67 3.01 -3.34 2.02 -3 1 C-2.01 1.33 -1.02 1.66 0 2 C0 1.34 0 0.68 0 0 Z " fill="#4F427F" transform="translate(262,482)"/>
<path d="M0 0 C0.33 0.99 0.66 1.98 1 3 C-0.63313973 5.32109236 -2.26189798 7.37813381 -4.125 9.5 C-4.61226563 10.08136719 -5.09953125 10.66273438 -5.6015625 11.26171875 C-8.44556061 14.56711017 -11.06264215 16.98084213 -15 19 C-14.34 17.68 -13.68 16.36 -13 15 C-12.34 15 -11.68 15 -11 15 C-10.76539063 14.45859375 -10.53078125 13.9171875 -10.2890625 13.359375 C-8.6416356 10.34408456 -6.57346656 7.88815988 -4.375 5.25 C-3.55773437 4.26515625 -2.74046875 3.2803125 -1.8984375 2.265625 C-1.27195312 1.51796875 -0.64546875 0.7703125 0 0 Z " fill="#4E488E" transform="translate(277,400)"/>
<path d="M0 0 C0.6640625 1.71875 0.6640625 1.71875 1 4 C-1.47762069 9.29055847 -5.16049181 13.72621505 -10 17 C-8.31447687 13.50190425 -6.39381793 10.16560443 -4.4375 6.8125 C-3.81746094 5.74644531 -3.19742188 4.68039062 -2.55859375 3.58203125 C-1 1 -1 1 0 0 Z " fill="#6289A9" transform="translate(143,359)"/>
<path d="M0 0 C0.99 0.33 1.98 0.66 3 1 C-1.62 5.95 -6.24 10.9 -11 16 C-11 12.06830895 -9.60580385 10.83572772 -7 8 C-6.34 8 -5.68 8 -5 8 C-4.731875 7.236875 -4.46375 6.47375 -4.1875 5.6875 C-3.05575888 3.12619116 -2.08776599 1.80307062 0 0 Z " fill="#4F498D" transform="translate(327,346)"/>
<path d="M0 0 C0.66 0 1.32 0 2 0 C0.80958587 3.57124239 -0.6470993 4.38807696 -3.87890625 6.1484375 C-7.47776749 7.59328419 -11.15443963 7.82559817 -15 8 C-15.33 7.01 -15.66 6.02 -16 5 C-15.01 4.67 -14.02 4.34 -13 4 C-13 4.66 -13 5.32 -13 6 C-11.18504338 5.55149342 -9.37306866 5.09090429 -7.5625 4.625 C-6.55316406 4.36976563 -5.54382813 4.11453125 -4.50390625 3.8515625 C-1.84429676 3.27426046 -1.84429676 3.27426046 -1 1 C-0.67 0.67 -0.34 0.34 0 0 Z " fill="#B2C8DB" transform="translate(280,229)"/>
<path d="M0 0 C1.32 0.66 2.64 1.32 4 2 C2.92250558 2.82022749 1.83770492 3.63086169 0.75 4.4375 C-0.15492187 5.11619141 -0.15492187 5.11619141 -1.078125 5.80859375 C-3.07885127 7.04888138 -4.71401348 7.51282255 -7 8 C-8.3479743 8.63654342 -9.68596724 9.29605388 -11 10 C-7.84778899 5.58690458 -4.44536093 2.99206986 0 0 Z " fill="#4D6089" transform="translate(55,292)"/>
<path d="M0 0 C-1.24042847 3.85911079 -3.62074637 5.31651536 -7.11328125 7.18359375 C-9.69478527 8.30064207 -12.21232843 8.72803204 -15 9 C-12.59888822 6.36115438 -9.99444972 4.63586471 -6.9375 2.8125 C-5.62072266 2.01779297 -5.62072266 2.01779297 -4.27734375 1.20703125 C-2 0 -2 0 0 0 Z " fill="#66628C" transform="translate(211,30)"/>
<path d="M0 0 C0.33 0.66 0.66 1.32 1 2 C0.34 2 -0.32 2 -1 2 C-1.33 2.66 -1.66 3.32 -2 4 C-4.31979381 5.03101947 -6.65429915 6.02936517 -9 7 C-9.99 7.66 -10.98 8.32 -12 9 C-14.1875 8.625 -14.1875 8.625 -16 8 C-14.08702939 6.84800669 -12.16947471 5.70362312 -10.25 4.5625 C-9.18265625 3.92441406 -8.1153125 3.28632812 -7.015625 2.62890625 C-4.56515029 1.30526901 -2.71008663 0.46702949 0 0 Z " fill="#747397" transform="translate(149,66)"/>
<path d="M0 0 C-1.70288198 1.13323463 -3.41258523 2.25622235 -5.125 3.375 C-6.07632812 4.00148438 -7.02765625 4.62796875 -8.0078125 5.2734375 C-10.95981219 6.97681069 -13.73870494 8.04193409 -17 9 C-16.67 8.01 -16.34 7.02 -16 6 C-14.34561387 5.30341637 -12.67745682 4.63903117 -11 4 C-9.97980427 3.0206121 -8.97850195 2.02104551 -8 1 C-4.87008725 -1.01929855 -3.5062522 -1.02479187 0 0 Z " fill="#4C3E7A" transform="translate(297,465)"/>
<path d="M0 0 C4.97306516 0.49730652 8.63799813 1.55302334 13 4 C13 5.32 13 6.64 13 8 C8.27626146 6.37621488 4.05818166 3.89006982 0 1 C0 0.67 0 0.34 0 0 Z " fill="#648F9F" transform="translate(184,453)"/>
<path d="M0 0 C0.56589844 0.37511719 1.13179688 0.75023437 1.71484375 1.13671875 C0.64234375 1.59046875 -0.43015625 2.04421875 -1.53515625 2.51171875 C-3.54575435 3.36763602 -5.47753701 4.23856739 -7.41015625 5.26171875 C-9.66235187 6.31274337 -11.84187802 6.72950571 -14.28515625 7.13671875 C-12.03241914 4.69685332 -9.71165935 3.00011938 -6.84765625 1.32421875 C-5.70490234 0.63392578 -5.70490234 0.63392578 -4.5390625 -0.0703125 C-2.28515625 -0.86328125 -2.28515625 -0.86328125 0 0 Z " fill="#484C90" transform="translate(273.28515625,237.86328125)"/>
<path d="M0 0 C0.66 0.33 1.32 0.66 2 1 C1.67 2.65 1.34 4.3 1 6 C0.01 5.34 -0.98 4.68 -2 4 C-2.556875 4.639375 -3.11375 5.27875 -3.6875 5.9375 C-6.22066561 8.19680987 -7.68341424 8.63149047 -11 9 C-9.73948004 5.21844011 -8.43553394 4.74381633 -5.0625 2.75 C-4.16660156 2.20859375 -3.27070313 1.6671875 -2.34765625 1.109375 C-1.57292969 0.74328125 -0.79820312 0.3771875 0 0 Z " fill="#746A99" transform="translate(223,22)"/>
<path d="M0 0 C2.10157503 0.98273133 4.18399347 2.00704014 6.25 3.0625 C7.32765625 3.61035156 8.4053125 4.15820312 9.515625 4.72265625 C10.74539063 5.35494141 10.74539063 5.35494141 12 6 C9.3528359 7.01106962 8.25693871 7.0975873 5.5625 6.07421875 C4.716875 5.61660156 3.87125 5.15898438 3 4.6875 C1.7315625 4.01267578 1.7315625 4.01267578 0.4375 3.32421875 C-0.366875 2.88722656 -1.17125 2.45023437 -2 2 C-3.33062521 1.32794436 -4.66297339 0.6592284 -6 0 C-3.40196863 -1.29901568 -2.73438707 -0.90989087 0 0 Z " fill="#666686" transform="translate(366,74)"/>
<path d="M0 0 C7.57142857 1.85714286 7.57142857 1.85714286 10 5 C9.67 5.99 9.34 6.98 9 8 C5.37 6.02 1.74 4.04 -2 2 C-1.34 1.34 -0.68 0.68 0 0 Z " fill="#5A839C" transform="translate(140,426)"/>
<path d="M0 0 C0.99 0.33 1.98 0.66 3 1 C2.67 2.32 2.34 3.64 2 5 C2.66 5.33 3.32 5.66 4 6 C4.33 6.99 4.66 7.98 5 9 C2.0280615 7.87548273 -0.33440687 6.77706209 -3 5 C-3 4.34 -3 3.68 -3 3 C-2.34 3 -1.68 3 -1 3 C-0.67 2.01 -0.34 1.02 0 0 Z " fill="#5D8499" transform="translate(114,407)"/>
<path d="M0 0 C1.32 0.66 2.64 1.32 4 2 C2.27281484 2.96189997 0.54315942 3.91936508 -1.1875 4.875 C-2.15042969 5.40867187 -3.11335938 5.94234375 -4.10546875 6.4921875 C-6.69739518 7.8423678 -9.26761098 8.97098329 -12 10 C-11 7 -11 7 -9.125 5.8125 C-7 5 -7 5 -4 5 C-3.67 4.01 -3.34 3.02 -3 2 C-2.01 1.34 -1.02 0.68 0 0 Z " fill="#584982" transform="translate(448,374)"/>
<path d="M0 0 C0.66 0 1.32 0 2 0 C2.05428973 2.22889496 2.09292338 4.45817471 2.125 6.6875 C2.14820313 7.92886719 2.17140625 9.17023438 2.1953125 10.44921875 C2.01032021 13.81237857 1.45767895 15.9985587 0 19 C-0.33 19 -0.66 19 -1 19 C-0.67 12.73 -0.34 6.46 0 0 Z " fill="#484689" transform="translate(354,240)"/>
<path d="M0 0 C-1.2065625 0.4021875 -1.2065625 0.4021875 -2.4375 0.8125 C-5.22307419 2.72850587 -5.22307419 2.72850587 -5.484375 5.54296875 C-5.61846304 7.49498111 -5.71176779 9.45027537 -5.76171875 11.40625 C-6 14 -6 14 -8 17 C-7.67 11.39 -7.34 5.78 -7 0 C-3 -1 -3 -1 0 0 Z " fill="#48468D" transform="translate(368,185)"/>
<path d="M0 0 C2.96175123 0.61277612 4.38058783 1.25372522 7 3 C7 3.99 7 4.98 7 6 C4 7 4 7 1.8125 6.0625 C1.214375 5.711875 0.61625 5.36125 0 5 C0.66 5 1.32 5 2 5 C2 4.34 2 3.68 2 3 C1.34 3 0.68 3 0 3 C0 2.01 0 1.02 0 0 Z " fill="#9197B4" transform="translate(451,124)"/>
<path d="M0 0 C1.43088528 2.86177057 0.59991697 4.93375773 0 8 C-0.99 8.33 -1.98 8.66 -3 9 C-4.69882448 11.49759982 -4.69882448 11.49759982 -6 14 C-6.66 13.67 -7.32 13.34 -8 13 C-5.36 8.71 -2.72 4.42 0 0 Z " fill="#6288A8" transform="translate(132,376)"/>
<path d="M0 0 C1.65 0.33 3.3 0.66 5 1 C4.14148438 1.38285156 4.14148438 1.38285156 3.265625 1.7734375 C0.75826267 3.13087159 -1.1330456 4.71974104 -3.25 6.625 C-3.95640625 7.25664062 -4.6628125 7.88828125 -5.390625 8.5390625 C-5.92171875 9.02117187 -6.4528125 9.50328125 -7 10 C-7 7 -7 7 -5.625 5.3125 C-4 4 -4 4 -2 4 C-2 3.34 -2 2.68 -2 2 C-1.34 2 -0.68 2 0 2 C0 1.34 0 0.68 0 0 Z " fill="#4C4889" transform="translate(344,328)"/>
<path d="M0 0 C0.515625 0.2475 1.03125 0.495 1.5625 0.75 C-2.71325688 4.88782924 -6.75703056 5.80944297 -12.4375 6.75 C-9.17447691 3.29853485 -4.99723075 -0.51253649 0 0 Z " fill="#535595" transform="translate(375.4375,178.25)"/>
<path d="M0 0 C0.33 0 0.66 0 1 0 C1 5.61 1 11.22 1 17 C-0.98 15.68 -2.96 14.36 -5 13 C-4.67 12.34 -4.34 11.68 -4 11 C-2.68 11.66 -1.36 12.32 0 13 C0 8.71 0 4.42 0 0 Z " fill="#6D96BA" transform="translate(249,368)"/>
<path d="M0 0 C4.63708939 2.60836278 8.78744458 5.77002574 13 9 C12.01 9.33 11.02 9.66 10 10 C9.443125 9.3503125 9.443125 9.3503125 8.875 8.6875 C6.95582572 6.79218392 6.95582572 6.79218392 3.875 5.5625 C1 4 1 4 0.125 1.8125 C0.08375 1.214375 0.0425 0.61625 0 0 Z " fill="#2D4769" transform="translate(224,366)"/>
<path d="M0 0 C8.415 1.98 8.415 1.98 17 4 C17 4.33 17 4.66 17 5 C10.80282648 6.75137513 7.50720839 5.17309311 1.94140625 2.12890625 C1.30074219 1.75636719 0.66007812 1.38382812 0 1 C0 0.67 0 0.34 0 0 Z " fill="#3E3C72" transform="translate(423,310)"/>
<path d="M0 0 C0.99 0.33 1.98 0.66 3 1 C3.33 2.65 3.66 4.3 4 6 C3.01 6.33 2.02 6.66 1 7 C-0.32 5.68 -1.64 4.36 -3 3 C-2.01 2.01 -1.02 1.02 0 0 Z " fill="#31365D" transform="translate(44,258)"/>
<path d="M0 0 C2.125 0.9375 2.125 0.9375 4 2 C3.67 2.33 3.34 2.66 3 3 C3.804375 3.268125 4.60875 3.53625 5.4375 3.8125 C6.283125 4.204375 7.12875 4.59625 8 5 C8.33 5.99 8.66 6.98 9 8 C4.96678237 6.78065514 1.45730521 5.44045073 -2 3 C-2 2.34 -2 1.68 -2 1 C-1.34 0.67 -0.68 0.34 0 0 Z " fill="#ABCED8" transform="translate(226,232)"/>
<path d="M0 0 C0.66 0 1.32 0 2 0 C2 0.66 2 1.32 2 2 C3.32 2.33 4.64 2.66 6 3 C5.67 3.99 5.34 4.98 5 6 C4.01 6.33 3.02 6.66 2 7 C1.34 7.66 0.68 8.32 0 9 C0 6.03 0 3.06 0 0 Z " fill="#555A9D" transform="translate(41,129)"/>
<path d="M0 0 C1.125 4.75 1.125 4.75 0 7 C-2.4375 6.1875 -2.4375 6.1875 -5 5 C-5.33 4.01 -5.66 3.02 -6 2 C-2.25 0 -2.25 0 0 0 Z " fill="#9097BC" transform="translate(271,112)"/>
<path d="M0 0 C3.40312738 1.05875074 6.01353231 2.00902154 9 4 C9 4.99 9 5.98 9 7 C8.01 7 7.02 7 6 7 C6 6.01 6 5.02 6 4 C4.35 4.66 2.7 5.32 1 6 C0.67 4.02 0.34 2.04 0 0 Z " fill="#736C96" transform="translate(304,39)"/>
<path d="M0 0 C0.99 0.33 1.98 0.66 3 1 C2.67 1.33 2.34 1.66 2 2 C2.99 2 3.98 2 5 2 C5.66 3.65 6.32 5.3 7 7 C4.03 6.01 1.06 5.02 -2 4 C-1.34 2.68 -0.68 1.36 0 0 Z " fill="#6DB4BD" transform="translate(186,449)"/>
<path d="M0 0 C1.32 0.33 2.64 0.66 4 1 C2.54550599 2.0055761 1.08627557 3.00430435 -0.375 4 C-1.59316406 4.8353125 -1.59316406 4.8353125 -2.8359375 5.6875 C-5 7 -5 7 -7 7 C-7 6.01 -7 5.02 -7 4 C-4.35261084 2.5393715 -3.10551666 2 0 2 C0 1.34 0 0.68 0 0 Z " fill="#50447B" transform="translate(360,425)"/>
<path d="M0 0 C0.66 0.33 1.32 0.66 2 1 C1.67 1.61875 1.34 2.2375 1 2.875 C-0.14193235 4.91018344 -0.14193235 4.91018344 0 7 C-2.64 6.67 -5.28 6.34 -8 6 C-5.63404067 3.38499232 -3.13950774 1.61000397 0 0 Z " fill="#78799D" transform="translate(112,86)"/>
<path d="M0 0 C-2.41143811 3.61715717 -3.87835957 3.96958989 -8 5 C-8.66 4.67 -9.32 4.34 -10 4 C-7.6604297 0.49064455 -4.21379901 -2.1068995 0 0 Z " fill="#8384AD" transform="translate(358,77)"/>
<path d="M0 0 C2 0.25 2 0.25 4 1 C4.33 1.99 4.66 2.98 5 4 C6.65 4 8.3 4 10 4 C10 4.99 10 5.98 10 7 C5.49197399 5.74194623 2.5087188 4.09592835 -1 1 C-0.67 0.67 -0.34 0.34 0 0 Z " fill="#5A7290" transform="translate(44,371)"/>
<path d="M0 0 C0.66 0.33 1.32 0.66 2 1 C1.01 2.485 1.01 2.485 0 4 C-1.32 4 -2.64 4 -4 4 C-4.66 5.32 -5.32 6.64 -6 8 C-7.32 7.34 -8.64 6.68 -10 6 C-8.3811004 4.96951963 -6.75467511 3.95085322 -5.125 2.9375 C-4.22007813 2.36902344 -3.31515625 1.80054687 -2.3828125 1.21484375 C-1.20332031 0.61349609 -1.20332031 0.61349609 0 0 Z " fill="#6C6D95" transform="translate(131,75)"/>
<path d="M0 0 C1 2 1 2 0 6 C-2.64 6.66 -5.28 7.32 -8 8 C-7.34 7.01 -6.68 6.02 -6 5 C-5.34 5 -4.68 5 -4 5 C-4 4.34 -4 3.68 -4 3 C-2 1.375 -2 1.375 0 0 Z " fill="#54618A" transform="translate(64,284)"/>
<path d="M0 0 C0 2.31 0 4.62 0 7 C-1.32 6.67 -2.64 6.34 -4 6 C-4 5.34 -4 4.68 -4 4 C-4.66 4 -5.32 4 -6 4 C-6 3.34 -6 2.68 -6 2 C-2.25 0 -2.25 0 0 0 Z " fill="#8A93B2" transform="translate(47,125)"/>
<path d="M0 0 C0.66 0.33 1.32 0.66 2 1 C0.4375 2.20442708 -1.125 3.40885417 -2.6875 4.61328125 C-4.34370205 6.04491137 -4.34370205 6.04491137 -4 9 C-4.99 8.67 -5.98 8.34 -7 8 C-7 6.68 -7 5.36 -7 4 C-1.7265625 0.77734375 -1.7265625 0.77734375 0 0 Z " fill="#3F456E" transform="translate(224,93)"/>
<path d="M0 0 C0.99 0.66 1.98 1.32 3 2 C2.67 3.32 2.34 4.64 2 6 C0.35 5.67 -1.3 5.34 -3 5 C-3 4.01 -3 3.02 -3 2 C-2.01 1.34 -1.02 0.68 0 0 Z " fill="#68B8BE" transform="translate(202,456)"/>
<path d="M0 0 C3.66881155 0.70554068 6.70450534 2.27735506 10 4 C9.01 4.99 8.02 5.98 7 7 C7 6.01 7 5.02 7 4 C5.35 4 3.7 4 2 4 C2 3.01 2 2.02 2 1 C1.34 0.67 0.68 0.34 0 0 Z " fill="#56477A" transform="translate(449,366)"/>
<path d="M0 0 C1.98 0 3.96 0 6 0 C6 1.66666667 6 3.33333333 6 5 C3.5625 4.1875 3.5625 4.1875 1 3 C0.67 2.01 0.34 1.02 0 0 Z " fill="#6390A4" transform="translate(129,420)"/>
<path d="M0 0 C0.66 0.33 1.32 0.66 2 1 C0.68 1.99 -0.64 2.98 -2 4 C-1.67 4.66 -1.34 5.32 -1 6 C-1.99 6 -2.98 6 -4 6 C-4 5.34 -4 4.68 -4 4 C-5.98 4.33 -7.96 4.66 -10 5 C-6.76527494 2.84351662 -3.62848922 1.38542316 0 0 Z " fill="#8D9CB9" transform="translate(208,137)"/>
<path d="M0 0 C2.125 0.9375 2.125 0.9375 4 2 C3.67 2.99 3.34 3.98 3 5 C1.35 5.33 -0.3 5.66 -2 6 C-2 4.35 -2 2.7 -2 1 C-1.34 0.67 -0.68 0.34 0 0 Z " fill="#898EB2" transform="translate(403,96)"/>
<path d="M0 0 C0 0.99 0 1.98 0 3 C-2.31 3.66 -4.62 4.32 -7 5 C-7.66 4.34 -8.32 3.68 -9 3 C-2.25 0 -2.25 0 0 0 Z " fill="#7B7CA1" transform="translate(328,88)"/>
<path d="M0 0 C3.06393013 -0.25532751 4.63233212 -0.21861333 7.3125 1.375 C7.869375 1.91125 8.42625 2.4475 9 3 C9 3.66 9 4.32 9 5 C5.22454612 3.90931332 2.52956528 3.0916909 0 0 Z " fill="#5F8594" transform="translate(220,474)"/>
<path d="M0 0 C-6.75 4 -6.75 4 -9 4 C-8.67 2.68 -8.34 1.36 -8 0 C-4.94736336 -0.98120464 -3.05263664 -0.98120464 0 0 Z " fill="#514685" transform="translate(306,460)"/>
<path d="M0 0 C2.0625 0.4375 2.0625 0.4375 4 1 C2.25 3.0625 2.25 3.0625 0 5 C-2.1875 4.875 -2.1875 4.875 -4 4 C-4.33 3.34 -4.66 2.68 -5 2 C-4.360625 1.855625 -3.72125 1.71125 -3.0625 1.5625 C-1.02454854 1.18992819 -1.02454854 1.18992819 0 0 Z " fill="#3A4574" transform="translate(251,425)"/>
<path d="M0 0 C2.125 0.9375 2.125 0.9375 4 2 C-2.75 6 -2.75 6 -5 6 C-5 5.34 -5 4.68 -5 4 C-4.34 4 -3.68 4 -3 4 C-2.67 3.01 -2.34 2.02 -2 1 C-1.34 0.67 -0.68 0.34 0 0 Z " fill="#53458B" transform="translate(427,386)"/>
<path d="M0 0 C0.99 0.33 1.98 0.66 3 1 C1.35 2.98 -0.3 4.96 -2 7 C-2.99 6.67 -3.98 6.34 -5 6 C-4.67 5.01 -4.34 4.02 -4 3 C-2.68 3 -1.36 3 0 3 C0 2.01 0 1.02 0 0 Z " fill="#4A678B" transform="translate(74,381)"/>
<path d="M0 0 C0.66 0.33 1.32 0.66 2 1 C-3.0022779 8.66742597 -3.0022779 8.66742597 -7 10 C-5.33248852 6.05860922 -2.77289351 3.2107188 0 0 Z " fill="#42407D" transform="translate(300,374)"/>
<path d="M0 0 C-1.5830577 4.2742558 -4.50568404 6.26531794 -8 9 C-8.66 8.34 -9.32 7.68 -10 7 C-8.71372289 5.82739389 -7.42080217 4.6620717 -6.125 3.5 C-5.04605469 2.52546875 -5.04605469 2.52546875 -3.9453125 1.53125 C-2 0 -2 0 0 0 Z " fill="#5B72A1" transform="translate(87,267)"/>
<path d="M0 0 C-0.8125 1.9375 -0.8125 1.9375 -2 4 C-5.13349732 5.04449911 -5.98968256 4.93423645 -9 4 C-2.25 0 -2.25 0 0 0 Z " fill="#5B5D99" transform="translate(392,168)"/>
<path d="M0 0 C0.8353125 0.37125 0.8353125 0.37125 1.6875 0.75 C1.089375 1.183125 0.49125 1.61625 -0.125 2.0625 C-2.02033087 3.52461239 -3.6653593 5.02050227 -5.3125 6.75 C-5.9725 5.76 -6.6325 4.77 -7.3125 3.75 C-2.88173077 -0.31153846 -2.88173077 -0.31153846 0 0 Z " fill="#756DA1" transform="translate(250.3125,8.25)"/>
<path d="M0 0 C0.33 0 0.66 0 1 0 C1 2.64 1 5.28 1 8 C0.01 7.67 -0.98 7.34 -2 7 C-2.125 4.625 -2.125 4.625 -2 2 C-1.34 1.34 -0.68 0.68 0 0 Z " fill="#74C0C6" transform="translate(248,480)"/>
<path d="M0 0 C1.65 0 3.3 0 5 0 C5 0.66 5 1.32 5 2 C5.9590625 2.1546875 5.9590625 2.1546875 6.9375 2.3125 C7.618125 2.539375 8.29875 2.76625 9 3 C9.33 3.99 9.66 4.98 10 6 C6.40992874 4.66654496 3.20429093 3.1056769 0 1 C0 0.67 0 0.34 0 0 Z " fill="#5C959E" transform="translate(210,468)"/>
<path d="M0 0 C-3.96 1.98 -3.96 1.98 -8 4 C-8.33 3.01 -8.66 2.02 -9 1 C-5.19495213 -0.79682816 -4.29399165 -1.07349791 0 0 Z " fill="#55468B" transform="translate(377,419)"/>
<path d="M0 0 C7.625 0.875 7.625 0.875 11 2 C11 2.66 11 3.32 11 4 C6.55129785 4.39253254 3.85756507 3.15305957 0 1 C0 0.67 0 0.34 0 0 Z " fill="#43407B" transform="translate(373,338)"/>
<path d="M0 0 C0 0.66 0 1.32 0 2 C-1.53125 3.2890625 -1.53125 3.2890625 -3.5 4.625 C-4.1496875 5.07101563 -4.799375 5.51703125 -5.46875 5.9765625 C-5.9740625 6.31429687 -6.479375 6.65203125 -7 7 C-7 6.01 -7 5.02 -7 4 C-6.34 4 -5.68 4 -5 4 C-5 3.01 -5 2.02 -5 1 C-3 0 -3 0 0 0 Z " fill="#33426F" transform="translate(136,224)"/>
<path d="M0 0 C-0.33 1.32 -0.66 2.64 -1 4 C-2.875 4.625 -2.875 4.625 -5 5 C-5.66 4.34 -6.32 3.68 -7 3 C-2.25 0 -2.25 0 0 0 Z " fill="#555999" transform="translate(298,222)"/>
<path d="M0 0 C3.91211733 1.15585285 6.8745041 2.35534962 10 5 C9.67 5.66 9.34 6.32 9 7 C6.03 5.35 3.06 3.7 0 2 C0 1.34 0 0.68 0 0 Z " fill="#555E9D" transform="translate(48,134)"/>
<path d="M0 0 C0.99 0.33 1.98 0.66 3 1 C2.67 1.66 2.34 2.32 2 3 C1.34 3 0.68 3 0 3 C-0.33 3.66 -0.66 4.32 -1 5 C-2.98 5 -4.96 5 -7 5 C-4.702779 3.25728062 -2.40133271 1.60088848 0 0 Z " fill="#5C589C" transform="translate(454,131)"/>
<path d="M0 0 C0.33 0.99 0.66 1.98 1 3 C2.65 3 4.3 3 6 3 C6 3.66 6 4.32 6 5 C4.02 5.66 2.04 6.32 0 7 C0 4.69 0 2.38 0 0 Z " fill="#98A0C3" transform="translate(178,111)"/>
<path d="M0 0 C0.66 0.33 1.32 0.66 2 1 C1.360625 1.61875 0.72125 2.2375 0.0625 2.875 C-2.03883584 4.82597612 -2.03883584 4.82597612 -3 7 C-3.99 6.67 -4.98 6.34 -6 6 C-6 5.01 -6 4.02 -6 3 C-4.03533587 1.93224776 -2.03144641 0.93446535 0 0 Z " fill="#74719C" transform="translate(184,45)"/>
<path d="M0 0 C3.96 1.98 3.96 1.98 8 4 C8 4.99 8 5.98 8 7 C7.67 6.34 7.34 5.68 7 5 C6.01 5 5.02 5 4 5 C4 4.34 4 3.68 4 3 C2.68 3.33 1.36 3.66 0 4 C0 2.68 0 1.36 0 0 Z " fill="#655E8B" transform="translate(253,9)"/>
<path d="M0 0 C0.99 0 1.98 0 3 0 C3 0.66 3 1.32 3 2 C-0.4352048 4.29013653 -1.985331 4.17842973 -6 4 C-6.33 3.34 -6.66 2.68 -7 2 C-6.030625 1.855625 -5.06125 1.71125 -4.0625 1.5625 C-1.13513227 1.32437659 -1.13513227 1.32437659 0 0 Z " fill="#47436D" transform="translate(253,487)"/>
<path d="M0 0 C3.73487777 0.4979837 5.81237635 0.87491756 9 3 C8.67 3.66 8.34 4.32 8 5 C5.525 4.01 5.525 4.01 3 3 C3 2.34 3 1.68 3 1 C2.01 1.33 1.02 1.66 0 2 C0 1.34 0 0.68 0 0 Z " fill="#53437A" transform="translate(437,362)"/>
<path d="M0 0 C0.99 0.33 1.98 0.66 3 1 C3 1.66 3 2.32 3 3 C4.2065625 3.433125 4.2065625 3.433125 5.4375 3.875 C8 5 8 5 9 7 C2.29787234 5.06382979 2.29787234 5.06382979 0 2 C0 1.34 0 0.68 0 0 Z " fill="#6895B2" transform="translate(211,353)"/>
<path d="M0 0 C2.125 0.375 2.125 0.375 4 1 C3.0409375 1.5878125 3.0409375 1.5878125 2.0625 2.1875 C-0.43778819 4.38472296 -0.64950425 5.75791433 -1 9 C-1.33 9 -1.66 9 -2 9 C-2.125 5.625 -2.125 5.625 -2 2 C-1.34 1.34 -0.68 0.68 0 0 Z " fill="#5E769F" transform="translate(43,302)"/>
<path d="M0 0 C0.33 0.99 0.66 1.98 1 3 C0.34 3 -0.32 3 -1 3 C-1.33 4.32 -1.66 5.64 -2 7 C-2.99 7 -3.98 7 -5 7 C-3.70700306 4.11562221 -2.34058637 2.12780579 0 0 Z " fill="#4C4B8F" transform="translate(255,425)"/>
<path d="M0 0 C0 3 0 3 -1.5 4.6875 C-1.995 5.120625 -2.49 5.55375 -3 6 C-4.32 5.34 -5.64 4.68 -7 4 C-4.69 2.68 -2.38 1.36 0 0 Z " fill="#484E8E" transform="translate(257,245)"/>
<path d="M0 0 C0.33 0.66 0.66 1.32 1 2 C1.61875 1.79375 2.2375 1.5875 2.875 1.375 C3.57625 1.25125 4.2775 1.1275 5 1 C5.66 1.66 6.32 2.32 7 3 C4.36 3.33 1.72 3.66 -1 4 C-1.33 3.01 -1.66 2.02 -2 1 C-1.34 0.67 -0.68 0.34 0 0 Z " fill="#B8D7D7" transform="translate(266,233)"/>
<path d="M0 0 C0.66 1.32 1.32 2.64 2 4 C0.35 4.33 -1.3 4.66 -3 5 C-3.66 3.68 -4.32 2.36 -5 1 C-3.35 0.67 -1.7 0.34 0 0 Z " fill="#8D8DB3" transform="translate(363,74)"/>
<path d="M0 0 C0.33 0.99 0.66 1.98 1 3 C-0.65 3.66 -2.3 4.32 -4 5 C-4.33 4.01 -4.66 3.02 -5 2 C-3.35 1.34 -1.7 0.68 0 0 Z " fill="#645292" transform="translate(455,370)"/>
<path d="M0 0 C0.625 1.8125 0.625 1.8125 1 4 C0.01 5.485 0.01 5.485 -1 7 C-1.66 7 -2.32 7 -3 7 C-3.33 5.68 -3.66 4.36 -4 3 C-2.68 2.67 -1.36 2.34 0 2 C0 1.34 0 0.68 0 0 Z " fill="#525195" transform="translate(323,206)"/>
<path d="M0 0 C0 0.66 0 1.32 0 2 C-2.30276574 4.21747812 -3.52480092 4.96760006 -6.75 5.1875 C-7.86375 5.0946875 -7.86375 5.0946875 -9 5 C-2.40909091 0 -2.40909091 0 0 0 Z " fill="#5B5C9A" transform="translate(423,150)"/>
<path d="M0 0 C2.97 0.495 2.97 0.495 6 1 C5.67 1.99 5.34 2.98 5 4 C3.0625 3.6875 3.0625 3.6875 1 3 C0.67 2.01 0.34 1.02 0 0 Z " fill="#8688A8" transform="translate(375,81)"/>
<path d="M0 0 C2.02045442 0.60183749 4.02111039 1.27306096 6 2 C6.33 2.66 6.66 3.32 7 4 C5.824375 3.9690625 5.824375 3.9690625 4.625 3.9375 C2.01885039 3.81315937 2.01885039 3.81315937 0 5 C0 3.35 0 1.7 0 0 Z " fill="#343559" transform="translate(151,65)"/>
<path d="M0 0 C2.02045442 0.60183749 4.02111039 1.27306096 6 2 C6.33 2.66 6.66 3.32 7 4 C4.36 3.67 1.72 3.34 -1 3 C-0.67 2.01 -0.34 1.02 0 0 Z " fill="#6C6894" transform="translate(297,35)"/>
<path d="" fill="#000000" transform="translate(0,0)"/>
<path d="" fill="#000000" transform="translate(0,0)"/>
<path d="" fill="#000000" transform="translate(0,0)"/>
<path d="" fill="#000000" transform="translate(0,0)"/>
<path d="" fill="#000000" transform="translate(0,0)"/>
<path d="" fill="#000000" transform="translate(0,0)"/>
<path d="" fill="#000000" transform="translate(0,0)"/>
<path d="" fill="#000000" transform="translate(0,0)"/>
<path d="" fill="#000000" transform="translate(0,0)"/>
<path d="" fill="#000000" transform="translate(0,0)"/>
<path d="" fill="#000000" transform="translate(0,0)"/>
<path d="" fill="#000000" transform="translate(0,0)"/>
<path d="" fill="#000000" transform="translate(0,0)"/>
<path d="" fill="#000000" transform="translate(0,0)"/>
<path d="" fill="#000000" transform="translate(0,0)"/>
<path d="" fill="#000000" transform="translate(0,0)"/>
<path d="" fill="#000000" transform="translate(0,0)"/>
<path d="" fill="#000000" transform="translate(0,0)"/>
<path d="" fill="#000000" transform="translate(0,0)"/>
<path d="" fill="#000000" transform="translate(0,0)"/>
<path d="" fill="#000000" transform="translate(0,0)"/>
<path d="" fill="#000000" transform="translate(0,0)"/>
<path d="" fill="#000000" transform="translate(0,0)"/>
<path d="" fill="#000000" transform="translate(0,0)"/>
<path d="" fill="#000000" transform="translate(0,0)"/>
<path d="" fill="#000000" transform="translate(0,0)"/>
</svg>
